<svg id="svg" version="1.1" xmlns="http://www.w3.org/2000/svg" xmlns:xlink="http://www.w3.org/1999/xlink" width="400" height="447.3061760840999" viewBox="0, 0, 400,447.3061760840999"><g id="svgg"><path id="path0" d="M193.148 8.387 C 184.820 10.906,183.577 30.194,191.400 35.502 C 195.081 38.000,201.672 37.026,204.468 33.571 C 208.388 28.728,208.428 17.124,204.544 11.519 C 202.529 8.611,197.226 7.154,193.148 8.387 M216.752 10.735 C 211.829 13.121,211.530 13.381,211.680 15.153 C 211.873 17.440,213.300 18.000,215.986 16.844 C 217.136 16.349,218.155 16.022,218.249 16.116 C 218.416 16.283,217.387 27.697,216.968 30.315 L 216.758 31.631 213.974 31.535 C 210.144 31.403,208.562 33.149,210.485 35.385 C 211.336 36.373,211.792 36.490,217.000 37.046 C 227.811 38.201,227.800 38.200,228.750 37.250 C 230.825 35.175,229.087 32.811,225.474 32.794 C 222.837 32.781,222.891 34.002,224.802 17.573 C 225.882 8.283,224.403 7.027,216.752 10.735 M172.741 10.109 C 171.213 10.818,165.341 15.648,164.786 16.652 C 163.200 19.526,166.626 21.405,169.413 19.189 C 171.597 17.454,171.682 17.597,172.667 24.629 C 173.157 28.133,173.662 31.561,173.788 32.247 L 174.017 33.495 171.670 33.760 C 167.758 34.203,166.015 37.310,168.832 38.817 C 169.997 39.440,185.527 37.291,186.661 36.350 C 188.890 34.499,186.611 31.876,182.936 32.062 L 180.218 32.200 178.726 21.829 C 176.998 9.812,176.306 8.456,172.741 10.109 M239.008 13.014 C 230.736 16.173,227.446 34.582,234.304 39.333 C 243.194 45.493,252.527 37.445,252.551 23.600 C 252.565 15.405,246.059 10.320,239.008 13.014 M198.936 13.621 C 201.759 15.842,201.869 29.445,199.080 31.399 C 195.178 34.132,192.600 30.308,192.600 21.787 C 192.600 14.048,195.207 10.688,198.936 13.621 M148.600 14.774 C 136.266 17.777,140.513 43.200,153.349 43.200 C 161.413 43.200,165.273 36.553,162.770 26.975 C 160.249 17.327,155.370 13.126,148.600 14.774 M245.084 18.241 C 248.933 20.666,244.715 36.424,240.225 36.391 C 236.549 36.364,235.595 32.874,237.362 25.909 C 239.272 18.380,241.614 16.054,245.084 18.241 M153.124 20.415 C 155.932 23.031,158.579 33.647,157.110 36.400 C 154.047 42.141,148.011 35.195,147.323 25.139 C 146.984 20.178,150.125 17.621,153.124 20.415 M266.355 20.578 C 266.257 20.676,264.922 20.948,263.388 21.181 C 258.257 21.963,257.600 22.349,257.600 24.580 C 257.600 26.526,258.359 26.945,261.442 26.697 C 263.753 26.512,264.046 26.566,263.863 27.143 C 263.749 27.504,262.818 29.960,261.794 32.600 C 260.770 35.240,259.643 38.255,259.290 39.300 C 258.584 41.386,258.367 41.480,256.262 40.600 C 253.339 39.379,251.200 40.126,251.200 42.367 C 251.200 44.212,251.491 44.369,263.000 48.735 C 267.571 50.469,268.450 50.505,269.435 49.003 C 270.586 47.247,269.923 46.112,266.976 44.789 L 264.379 43.624 265.029 42.112 C 265.387 41.280,265.829 40.150,266.012 39.600 C 266.195 39.050,266.910 37.160,267.601 35.400 C 272.196 23.693,272.402 22.689,270.522 21.210 C 269.603 20.487,266.862 20.071,266.355 20.578 M125.881 22.842 C 124.784 23.481,119.200 31.189,119.200 32.065 C 119.200 33.048,120.933 34.800,121.905 34.800 C 122.844 34.800,123.591 34.192,125.002 32.282 C 125.619 31.446,126.245 30.906,126.393 31.082 C 126.652 31.386,132.400 45.003,132.400 45.311 C 132.400 45.393,131.319 45.959,129.998 46.568 C 127.295 47.816,126.648 48.976,127.651 50.772 C 128.533 52.352,129.883 52.241,134.668 50.197 C 137.051 49.179,140.080 47.888,141.400 47.328 C 145.163 45.730,145.600 45.365,145.600 43.819 C 145.600 41.208,144.183 40.678,140.718 41.994 C 138.072 43.000,139.092 44.655,132.249 28.250 C 129.822 22.433,128.506 21.315,125.881 22.842 M284.000 29.157 C 276.038 31.726,269.393 44.643,272.547 51.416 C 277.624 62.319,291.123 57.237,295.361 42.827 C 297.652 35.039,290.910 26.926,284.000 29.157 M105.000 32.890 C 96.892 35.773,96.214 44.995,103.393 54.747 C 111.201 65.355,125.585 59.447,122.255 47.000 C 119.614 37.125,111.575 30.552,105.000 32.890 M288.192 34.677 C 291.065 36.047,290.795 39.510,287.328 45.750 C 284.160 51.451,281.306 53.257,278.702 51.209 C 276.790 49.705,277.028 47.149,279.561 41.982 C 282.719 35.539,285.343 33.318,288.192 34.677 M109.538 38.239 C 112.065 39.759,116.564 47.332,117.047 50.879 C 117.369 53.243,115.785 55.200,113.550 55.200 C 109.490 55.200,102.120 42.110,104.500 39.126 C 105.750 37.560,107.808 37.198,109.538 38.239 M300.661 44.034 C 299.034 46.358,300.151 48.020,303.567 48.355 L 306.064 48.600 301.813 54.600 C 296.221 62.491,296.863 61.990,294.581 60.248 C 292.326 58.526,291.153 58.425,290.029 59.854 C 288.442 61.872,289.163 62.854,295.418 67.200 C 297.159 68.410,299.557 70.075,300.746 70.900 C 304.993 73.847,308.980 70.836,304.960 67.717 C 304.168 67.103,303.169 66.330,302.741 66.000 C 301.993 65.424,302.197 65.070,307.823 57.200 C 315.416 46.580,315.552 46.224,312.693 44.458 C 310.449 43.070,301.555 42.757,300.661 44.034 M83.825 47.411 C 83.310 47.967,82.667 49.002,82.397 49.711 C 82.127 50.420,81.383 52.302,80.744 53.894 C 79.164 57.829,80.355 60.703,83.193 59.802 C 83.910 59.575,85.600 56.676,85.600 55.674 C 85.600 54.361,86.993 55.738,91.000 61.010 C 96.228 67.888,96.090 67.484,93.800 69.200 C 91.709 70.767,91.230 71.975,92.145 73.373 C 93.737 75.802,94.346 75.494,105.700 66.504 C 108.737 64.099,109.160 62.853,107.474 61.270 C 106.217 60.088,105.619 60.168,103.482 61.800 C 100.913 63.761,101.211 63.977,94.800 55.499 C 87.105 45.322,86.306 44.734,83.825 47.411 M322.153 55.962 C 313.238 58.213,305.159 70.447,308.397 76.793 C 313.213 86.234,326.429 83.130,332.270 71.186 C 336.259 63.030,330.210 53.928,322.153 55.962 M68.651 60.966 C 59.852 64.223,59.298 73.265,67.400 81.423 C 75.132 89.208,83.511 89.158,87.203 81.305 C 91.139 72.931,77.304 57.764,68.651 60.966 M327.281 62.419 C 329.864 65.003,325.993 71.791,319.444 76.162 C 314.960 79.154,311.397 75.347,314.202 70.560 C 318.192 63.751,324.615 59.754,327.281 62.419 M72.687 66.783 C 76.597 68.558,82.396 75.414,82.399 78.264 C 82.404 84.162,76.019 82.431,69.739 74.833 C 65.088 69.205,66.931 64.171,72.687 66.783 M336.416 74.475 C 334.774 76.238,335.572 78.061,338.396 78.999 C 341.019 79.870,341.052 79.794,336.300 83.746 C 334.045 85.621,331.480 87.789,330.600 88.563 C 328.578 90.341,328.755 90.365,326.475 88.000 C 324.029 85.462,321.200 85.870,321.200 88.761 C 321.200 90.491,331.697 102.400,333.222 102.400 C 336.155 102.400,336.623 100.298,334.358 97.298 C 333.455 96.102,332.870 94.977,333.058 94.798 C 333.246 94.618,334.765 93.331,336.434 91.936 C 350.222 80.414,349.841 80.812,349.099 78.681 C 348.586 77.210,347.786 76.731,343.000 75.025 C 338.333 73.362,337.516 73.294,336.416 74.475 M50.041 80.267 C 48.656 81.527,48.268 83.011,47.794 88.847 C 47.525 92.157,47.551 92.321,48.446 92.947 C 50.630 94.477,52.249 93.613,52.648 90.705 C 53.082 87.535,53.048 87.526,59.557 92.619 C 66.418 97.988,66.047 97.407,64.179 99.855 C 62.511 102.040,62.486 103.339,64.088 104.530 C 65.663 105.700,66.613 105.105,69.830 100.929 C 71.325 98.988,73.505 96.195,74.674 94.721 C 78.753 89.582,75.768 85.503,71.529 90.423 L 69.786 92.447 65.750 89.323 C 63.530 87.605,59.827 84.726,57.522 82.924 C 52.472 78.978,51.743 78.719,50.041 80.267 M350.000 91.975 C 337.662 95.751,331.958 106.720,338.784 113.546 C 346.537 121.299,365.801 110.042,363.216 99.268 C 361.856 93.596,355.736 90.219,350.000 91.975 M38.984 98.120 C 28.178 103.297,33.304 117.168,47.573 121.361 C 57.889 124.394,65.002 113.861,58.454 105.249 C 54.219 99.678,43.740 95.841,38.984 98.120 M357.084 98.100 C 359.120 100.325,358.381 102.608,354.646 105.630 C 347.372 111.516,341.018 112.251,341.018 107.208 C 341.018 102.439,354.210 94.960,357.084 98.100 M44.437 103.549 C 53.626 106.729,58.886 113.701,53.724 115.858 C 49.836 117.482,38.400 110.505,38.400 106.509 C 38.400 103.370,40.684 102.250,44.437 103.549 M362.982 113.382 C 361.406 114.958,361.683 116.174,364.000 117.838 C 366.526 119.653,366.989 119.135,359.732 122.614 C 351.426 126.596,351.934 126.521,350.543 123.965 C 348.829 120.816,346.869 120.302,345.360 122.606 C 344.728 123.569,344.806 123.803,348.032 130.643 C 352.032 139.124,352.475 139.765,354.121 139.436 C 356.671 138.926,357.016 137.505,355.393 134.200 L 354.410 132.200 356.305 131.299 C 373.164 123.285,374.004 122.841,374.430 121.722 C 375.191 119.721,374.102 118.317,369.367 115.196 C 364.626 112.072,364.366 111.998,362.982 113.382 M25.463 121.253 C 22.238 123.127,24.116 135.600,27.622 135.600 C 29.357 135.600,30.108 134.143,29.810 131.360 L 29.537 128.803 32.703 130.159 C 37.583 132.247,41.673 134.029,43.046 134.663 L 44.291 135.239 43.307 137.676 C 42.175 140.478,42.429 141.727,44.273 142.428 C 46.130 143.134,47.025 142.007,49.852 135.400 C 51.264 132.100,52.685 128.833,53.010 128.140 C 53.812 126.427,53.756 125.886,52.674 124.870 C 50.760 123.071,49.363 123.747,47.736 127.259 C 47.162 128.498,46.604 129.205,46.299 129.079 C 46.024 128.966,41.601 127.056,36.470 124.836 C 26.638 120.583,26.623 120.578,25.463 121.253 M369.400 134.170 C 369.180 134.249,367.920 134.629,366.600 135.014 C 358.758 137.302,354.473 141.689,354.898 146.990 C 355.493 154.392,361.014 157.962,369.200 156.238 C 381.168 153.718,386.479 146.494,382.095 138.699 C 380.053 135.066,373.457 132.713,369.400 134.170 M377.200 140.779 C 379.702 142.532,378.518 145.903,374.723 147.835 C 366.820 151.858,360.052 151.556,360.013 147.178 C 359.974 142.877,373.178 137.961,377.200 140.779 M20.608 140.639 C 12.319 143.673,12.728 155.107,21.279 159.440 C 32.404 165.077,42.221 162.375,43.419 153.345 C 44.519 145.046,30.263 137.105,20.608 140.639 M30.000 146.881 C 37.276 148.851,40.108 151.974,37.433 155.078 C 34.787 158.148,20.676 154.387,19.795 150.377 C 19.323 148.228,20.351 146.682,22.800 145.856 C 23.700 145.553,26.637 145.971,30.000 146.881 M378.829 157.854 C 377.705 159.283,377.884 159.839,380.332 162.496 C 381.591 163.863,381.887 163.701,376.200 164.756 C 373.560 165.246,370.167 165.906,368.659 166.222 C 365.341 166.917,365.374 166.934,365.026 164.311 C 364.686 161.745,363.911 160.800,362.147 160.800 C 359.099 160.800,359.097 161.092,362.062 176.359 C 362.787 180.091,364.991 181.331,366.923 179.093 C 367.495 178.430,367.584 177.915,367.351 176.627 C 366.628 172.640,364.850 173.426,381.932 170.185 C 390.854 168.492,391.347 167.106,385.413 160.400 C 381.783 156.297,380.457 155.785,378.829 157.854 M35.229 164.371 C 34.796 164.804,34.344 165.989,34.199 167.071 C 34.057 168.132,33.881 169.195,33.809 169.432 C 33.719 169.727,31.791 169.570,27.739 168.938 C 8.084 165.869,7.923 165.937,11.933 175.598 C 14.072 180.750,14.973 181.578,17.127 180.374 C 18.520 179.596,18.678 178.144,17.627 175.768 L 16.804 173.907 19.320 174.177 C 20.703 174.325,24.257 174.853,27.218 175.351 C 33.207 176.359,32.815 176.022,32.248 179.679 C 31.901 181.924,32.822 183.200,34.791 183.200 C 36.829 183.200,37.329 181.787,38.594 172.449 C 38.933 169.946,39.313 167.487,39.439 166.986 C 40.079 164.439,37.045 162.555,35.229 164.371 M372.200 179.362 C 364.400 181.290,360.839 187.818,364.056 194.293 C 367.829 201.889,385.289 201.995,390.590 194.453 C 393.335 190.547,391.965 183.658,387.901 180.935 C 384.788 178.848,377.310 178.099,372.200 179.362 M383.223 185.242 C 387.383 186.135,388.598 190.161,385.283 192.072 C 382.435 193.714,373.282 194.303,370.314 193.036 C 366.555 191.430,367.492 186.574,371.712 185.794 C 377.500 184.723,380.200 184.594,383.223 185.242 M15.800 185.760 C 9.326 187.351,6.290 192.645,8.188 199.034 C 11.089 208.802,32.765 209.008,36.229 199.301 C 39.604 189.845,28.668 182.596,15.800 185.760 M28.234 192.170 C 33.222 193.696,32.987 198.379,27.858 199.651 C 19.559 201.710,11.103 198.679,12.932 194.301 C 14.162 191.358,22.008 190.265,28.234 192.170 M364.488 203.706 C 363.461 204.800,362.321 219.958,363.150 221.506 C 364.726 224.451,368.000 222.231,368.000 218.217 C 368.000 217.198,368.206 216.409,368.500 216.299 C 368.963 216.125,378.617 216.728,386.269 217.408 C 392.207 217.935,393.097 215.470,389.450 208.600 C 387.014 204.013,386.028 203.161,384.177 204.044 C 382.647 204.774,382.437 206.520,383.605 208.809 C 384.073 209.727,384.377 210.556,384.281 210.652 C 384.098 210.836,371.913 210.096,369.747 209.770 L 368.494 209.581 368.698 207.041 C 369.001 203.256,366.657 201.398,364.488 203.706 M32.532 206.474 C 31.418 207.013,31.126 208.230,31.450 210.989 C 31.655 212.732,31.593 213.201,31.155 213.204 C 29.498 213.215,10.872 215.197,10.276 215.426 C 9.095 215.879,8.375 217.718,8.799 219.197 C 9.289 220.903,14.515 227.832,15.509 228.092 C 18.522 228.880,19.741 225.874,17.572 223.006 L 16.366 221.411 17.283 221.135 C 18.695 220.710,31.168 219.502,31.769 219.733 C 32.071 219.849,32.422 220.913,32.583 222.201 C 33.037 225.836,34.989 227.047,37.059 224.978 C 37.878 224.159,38.034 223.702,37.845 222.678 C 37.716 221.975,37.330 218.449,36.988 214.842 C 36.191 206.440,35.456 205.060,32.532 206.474 M366.354 224.528 C 359.076 227.248,357.749 237.454,364.105 241.834 C 373.085 248.023,386.129 246.622,388.343 239.231 C 390.973 230.455,384.758 224.494,372.600 224.131 C 369.235 224.031,367.368 224.149,366.354 224.528 M23.400 230.554 C 13.056 233.445,9.375 240.402,14.315 247.725 C 18.856 254.456,36.540 251.791,40.253 243.816 C 44.655 234.363,35.513 227.169,23.400 230.554 M376.760 230.811 C 383.347 232.390,385.697 235.188,383.032 238.278 C 380.487 241.229,366.547 238.493,365.256 234.789 C 363.783 230.564,368.674 228.873,376.760 230.811 M34.176 235.991 C 37.321 237.187,36.777 241.188,33.224 242.988 C 25.702 246.799,17.242 246.197,17.209 241.847 C 17.181 238.234,29.182 234.092,34.176 235.991 M357.875 245.517 C 357.203 246.259,352.400 260.352,352.400 261.581 C 352.400 262.630,353.708 263.600,355.122 263.600 C 356.558 263.600,357.246 262.771,358.029 260.100 C 358.658 257.951,357.872 257.843,369.204 261.634 C 379.460 265.065,380.270 265.181,381.451 263.378 C 382.595 261.633,380.987 252.111,379.346 250.911 C 376.753 249.015,374.433 251.680,375.646 255.161 C 376.336 257.139,376.041 257.117,368.486 254.623 C 360.136 251.867,360.629 252.186,361.392 250.022 C 362.792 246.054,360.290 242.849,357.875 245.517 M39.545 248.407 C 38.449 249.047,38.333 250.601,39.216 252.841 C 40.205 255.350,40.316 255.224,35.598 256.965 C 17.813 263.531,18.183 263.313,19.461 266.461 C 20.714 269.547,28.119 274.538,29.805 273.433 C 31.834 272.104,31.605 270.222,29.208 268.525 C 27.024 266.979,26.949 267.038,35.016 263.994 L 42.200 261.284 42.774 262.542 C 43.090 263.234,43.607 264.387,43.922 265.104 C 44.900 267.329,48.069 267.258,48.636 264.999 C 48.919 263.870,44.028 249.990,42.892 248.700 C 42.223 247.940,40.589 247.797,39.545 248.407 " stroke="none" fill="#fcf3ed" fill-rule="evenodd"></path><path id="path1" d="M184.400 0.214 C 183.850 0.289,180.610 0.558,177.200 0.813 C 173.790 1.068,170.820 1.412,170.600 1.577 C 170.380 1.743,168.310 2.107,166.000 2.388 C 163.690 2.668,161.620 3.025,161.400 3.181 C 161.180 3.337,159.470 3.698,157.600 3.984 C 155.730 4.270,153.480 4.737,152.600 5.022 C 151.720 5.308,149.875 5.758,148.500 6.023 C 147.125 6.287,146.000 6.661,146.000 6.852 C 146.000 7.043,145.603 7.200,145.119 7.200 C 144.166 7.200,136.957 9.329,135.000 10.189 C 134.340 10.478,133.215 10.839,132.500 10.990 C 131.785 11.140,131.200 11.401,131.200 11.568 C 131.200 11.736,130.210 12.094,129.000 12.365 C 127.790 12.636,126.800 12.985,126.800 13.141 C 126.800 13.298,125.945 13.669,124.900 13.967 C 123.855 14.265,122.460 14.824,121.800 15.211 C 121.140 15.597,120.015 16.037,119.300 16.189 C 118.585 16.340,118.000 16.600,118.000 16.768 C 118.000 16.935,117.280 17.310,116.400 17.600 C 115.520 17.890,114.800 18.240,114.800 18.377 C 114.800 18.513,113.990 18.865,113.000 19.157 C 112.010 19.449,111.200 19.820,111.200 19.980 C 111.200 20.141,110.480 20.510,109.600 20.800 C 108.720 21.090,108.000 21.445,108.000 21.587 C 108.000 21.729,107.235 22.180,106.300 22.587 C 105.365 22.995,104.510 23.435,104.400 23.564 C 104.290 23.694,103.570 24.116,102.800 24.502 C 100.322 25.744,96.206 28.104,96.000 28.400 C 95.890 28.559,95.260 28.989,94.600 29.356 C 93.940 29.724,92.860 30.373,92.200 30.800 C 91.540 31.227,90.460 31.876,89.800 32.244 C 88.764 32.821,88.002 33.372,85.775 35.152 C 85.541 35.339,84.915 35.725,84.383 36.009 C 83.851 36.294,83.192 36.723,82.918 36.963 C 82.644 37.203,81.944 37.760,81.363 38.200 C 80.781 38.640,79.966 39.315,79.552 39.700 C 79.139 40.085,78.665 40.403,78.500 40.406 C 78.335 40.410,77.615 40.905,76.900 41.506 C 76.184 42.108,75.132 42.960,74.561 43.400 C 73.990 43.840,73.111 44.560,72.608 45.000 C 72.104 45.440,70.294 46.970,68.584 48.400 C 64.024 52.215,47.200 69.325,47.200 70.149 C 47.200 70.301,46.570 71.003,45.800 71.710 C 45.030 72.416,44.400 73.155,44.400 73.351 C 44.400 73.548,43.995 74.117,43.500 74.616 C 42.392 75.735,41.950 76.291,40.968 77.804 C 40.259 78.896,39.736 79.540,38.181 81.234 C 37.862 81.582,37.600 82.083,37.600 82.346 C 37.600 82.610,37.337 82.926,37.015 83.050 C 36.694 83.173,36.328 83.595,36.204 83.988 C 36.079 84.381,35.533 85.219,34.989 85.851 C 34.446 86.483,34.001 87.225,34.000 87.500 C 34.000 87.775,33.828 88.000,33.619 88.000 C 33.409 88.000,32.924 88.675,32.540 89.500 C 32.157 90.325,31.608 91.144,31.322 91.320 C 31.035 91.496,30.800 91.803,30.800 92.002 C 30.800 92.314,30.135 93.411,28.378 96.000 C 27.701 96.997,26.858 98.521,26.166 100.000 C 25.805 100.770,25.372 101.490,25.202 101.600 C 25.033 101.710,24.558 102.473,24.147 103.295 C 23.736 104.117,22.365 106.822,21.100 109.306 C 19.835 111.791,18.800 114.043,18.800 114.311 C 18.800 114.580,18.620 114.800,18.400 114.800 C 18.180 114.800,18.000 114.982,18.000 115.204 C 18.000 115.427,17.615 116.462,17.145 117.504 C 16.675 118.547,15.884 120.300,15.386 121.400 C 14.889 122.500,14.255 124.165,13.978 125.100 C 13.700 126.035,13.351 126.800,13.201 126.800 C 13.051 126.800,12.690 127.790,12.400 129.000 C 12.110 130.210,11.741 131.200,11.581 131.200 C 11.420 131.200,11.164 131.875,11.011 132.700 C 10.859 133.525,10.489 134.740,10.190 135.400 C 9.891 136.060,9.439 137.410,9.184 138.400 C 8.930 139.390,8.579 140.380,8.405 140.600 C 8.231 140.820,7.855 142.080,7.569 143.400 C 7.283 144.720,6.936 145.890,6.798 146.000 C 6.337 146.367,3.632 158.677,3.612 160.500 C 3.605 161.105,3.447 161.600,3.259 161.600 C 3.072 161.600,2.696 163.535,2.425 165.900 C 2.154 168.265,1.776 170.560,1.584 171.000 C 0.118 174.363,-0.383 214.788,0.919 224.600 C 2.185 234.133,2.925 238.602,3.259 238.733 C 3.447 238.807,3.605 239.347,3.612 239.933 C 3.632 241.648,6.103 253.017,6.801 254.600 C 6.995 255.040,7.273 256.030,7.419 256.800 C 7.565 257.570,7.912 258.740,8.191 259.400 C 8.470 260.060,9.304 262.490,10.046 264.800 C 10.788 267.110,11.500 269.090,11.627 269.200 C 11.755 269.310,12.103 270.300,12.400 271.400 C 12.697 272.500,13.045 273.490,13.173 273.600 C 13.300 273.710,13.649 274.520,13.948 275.400 C 14.573 277.237,15.036 278.340,16.761 282.101 C 17.442 283.587,18.000 284.982,18.000 285.201 C 18.000 285.420,18.180 285.600,18.400 285.600 C 18.620 285.600,18.800 285.810,18.800 286.066 C 18.800 287.059,21.615 292.400,22.139 292.400 C 22.443 292.400,23.121 292.078,23.646 291.684 C 24.171 291.290,25.050 290.742,25.600 290.465 C 26.150 290.188,27.320 289.527,28.200 288.996 C 30.865 287.387,32.477 286.452,35.200 284.936 C 36.630 284.139,37.890 283.378,38.000 283.244 C 38.214 282.983,40.510 281.676,42.800 280.512 C 43.570 280.120,44.290 279.698,44.400 279.574 C 44.510 279.449,45.680 278.741,47.000 278.000 C 48.320 277.259,49.490 276.541,49.600 276.404 C 49.710 276.267,50.385 275.918,51.100 275.629 C 51.815 275.340,52.400 274.962,52.400 274.791 C 52.400 274.619,52.895 274.272,53.500 274.020 C 54.105 273.768,55.500 273.038,56.600 272.398 C 57.700 271.759,59.193 270.952,59.917 270.605 C 61.795 269.707,62.176 267.033,60.645 265.502 C 60.357 265.214,59.887 264.263,59.602 263.389 C 59.316 262.515,58.749 261.173,58.341 260.406 C 57.934 259.639,57.600 258.734,57.600 258.395 C 57.600 258.056,57.340 257.406,57.022 256.952 C 56.704 256.498,56.232 255.288,55.974 254.263 C 55.716 253.239,55.366 252.400,55.197 252.400 C 55.028 252.400,54.763 251.725,54.608 250.900 C 54.454 250.075,54.001 248.680,53.601 247.800 C 53.202 246.920,52.748 245.345,52.592 244.300 C 52.437 243.255,52.178 242.400,52.019 242.400 C 51.859 242.400,51.491 241.140,51.200 239.600 C 50.909 238.060,50.551 236.800,50.404 236.800 C 50.257 236.800,49.806 234.595,49.403 231.900 C 49.000 229.205,48.539 226.820,48.378 226.600 C 48.217 226.380,47.869 223.860,47.604 221.000 C 47.340 218.140,46.916 215.368,46.662 214.839 C 46.014 213.492,46.014 186.908,46.662 185.561 C 46.916 185.032,47.340 182.260,47.604 179.400 C 47.869 176.540,48.217 174.020,48.378 173.800 C 48.539 173.580,49.000 171.195,49.403 168.500 C 49.806 165.805,50.257 163.600,50.404 163.600 C 50.551 163.600,50.909 162.340,51.200 160.800 C 51.491 159.260,51.859 158.000,52.019 158.000 C 52.179 158.000,52.530 156.830,52.800 155.400 C 53.070 153.970,53.426 152.800,53.591 152.800 C 53.756 152.800,54.120 151.720,54.400 150.400 C 54.680 149.080,55.043 148.000,55.207 148.000 C 55.371 148.000,55.700 147.235,55.938 146.300 C 56.177 145.365,56.738 143.887,57.186 143.015 C 57.634 142.144,58.000 141.109,58.000 140.715 C 58.000 140.322,58.161 140.000,58.357 140.000 C 58.553 140.000,59.037 138.920,59.432 137.600 C 59.828 136.280,60.283 135.200,60.445 135.200 C 60.606 135.200,60.958 134.525,61.227 133.700 C 61.496 132.875,61.838 132.110,61.987 132.000 C 62.136 131.890,62.865 130.540,63.607 129.000 C 64.349 127.460,65.179 125.974,65.452 125.698 C 65.724 125.421,66.074 124.791,66.228 124.298 C 66.382 123.804,66.619 123.310,66.754 123.200 C 66.889 123.090,67.341 122.370,67.758 121.600 C 68.176 120.830,69.211 119.167,70.058 117.905 C 70.906 116.642,71.600 115.509,71.600 115.388 C 71.600 115.266,71.788 114.949,72.019 114.683 C 72.249 114.417,73.318 112.940,74.395 111.400 C 75.472 109.860,76.609 108.330,76.921 108.000 C 77.234 107.670,77.723 106.950,78.008 106.400 C 78.293 105.850,78.858 105.165,79.263 104.877 C 79.669 104.590,80.000 104.200,80.000 104.012 C 80.000 103.823,80.628 102.978,81.396 102.134 C 83.613 99.699,84.119 99.117,85.503 97.408 C 86.219 96.524,86.959 95.620,87.147 95.400 C 87.971 94.435,96.823 86.032,98.735 84.400 C 99.895 83.410,101.480 82.015,102.256 81.300 C 103.033 80.585,103.823 80.000,104.012 80.000 C 104.200 80.000,104.598 79.653,104.895 79.229 C 105.192 78.805,105.922 78.236,106.517 77.965 C 107.113 77.694,107.600 77.316,107.600 77.126 C 107.600 76.936,108.055 76.607,108.610 76.396 C 109.166 76.185,109.725 75.739,109.853 75.406 C 109.981 75.073,110.262 74.800,110.477 74.800 C 110.933 74.800,114.536 72.345,114.733 71.900 C 114.807 71.735,115.049 71.600,115.272 71.600 C 115.494 71.600,116.241 71.195,116.930 70.700 C 118.469 69.595,119.017 69.258,121.246 68.046 C 122.211 67.522,123.090 66.961,123.200 66.800 C 123.310 66.639,123.804 66.382,124.298 66.228 C 124.791 66.074,125.421 65.724,125.698 65.452 C 125.974 65.179,127.460 64.349,129.000 63.607 C 130.540 62.865,131.890 62.136,132.000 61.987 C 132.110 61.838,132.875 61.496,133.700 61.227 C 134.525 60.958,135.200 60.586,135.200 60.401 C 135.200 60.215,135.785 59.940,136.500 59.789 C 137.215 59.637,138.361 59.173,139.047 58.757 C 139.733 58.341,140.550 58.000,140.863 58.000 C 141.175 58.000,142.144 57.634,143.015 57.186 C 143.887 56.738,145.365 56.177,146.300 55.938 C 147.235 55.700,148.000 55.371,148.000 55.207 C 148.000 55.043,149.080 54.680,150.400 54.400 C 151.720 54.120,152.800 53.756,152.800 53.591 C 152.800 53.426,153.970 53.070,155.400 52.800 C 156.830 52.530,158.000 52.183,158.000 52.028 C 158.000 51.873,159.215 51.510,160.700 51.221 C 162.185 50.932,163.580 50.562,163.800 50.398 C 164.020 50.234,166.270 49.780,168.800 49.389 C 171.330 48.998,173.580 48.543,173.800 48.378 C 174.020 48.214,176.630 47.866,179.600 47.605 C 182.570 47.344,185.432 46.921,185.961 46.665 C 187.226 46.052,213.915 46.031,214.324 46.643 C 214.476 46.871,217.120 47.285,220.200 47.564 C 223.280 47.844,225.980 48.208,226.200 48.375 C 226.420 48.541,228.670 48.998,231.200 49.389 C 233.730 49.780,235.980 50.234,236.200 50.398 C 236.420 50.562,237.815 50.932,239.300 51.221 C 240.785 51.510,242.000 51.873,242.000 52.028 C 242.000 52.183,243.170 52.530,244.600 52.800 C 246.030 53.070,247.200 53.426,247.200 53.591 C 247.200 53.756,248.280 54.120,249.600 54.400 C 250.920 54.680,252.000 55.043,252.000 55.207 C 252.000 55.371,252.765 55.700,253.700 55.938 C 254.635 56.177,256.113 56.738,256.985 57.186 C 257.856 57.634,258.825 58.000,259.137 58.000 C 259.450 58.000,260.267 58.341,260.953 58.757 C 261.639 59.173,262.785 59.637,263.500 59.789 C 264.215 59.940,264.800 60.215,264.800 60.401 C 264.800 60.586,265.475 60.958,266.300 61.227 C 267.125 61.496,267.890 61.838,268.000 61.987 C 268.110 62.136,269.460 62.865,271.000 63.607 C 272.540 64.349,274.038 65.191,274.328 65.477 C 274.618 65.764,275.293 66.109,275.828 66.243 C 276.363 66.377,276.800 66.647,276.800 66.843 C 276.800 67.040,276.999 67.200,277.242 67.200 C 277.485 67.200,278.484 67.740,279.462 68.400 C 280.440 69.060,281.333 69.600,281.447 69.600 C 281.560 69.600,282.243 70.050,282.964 70.600 C 283.686 71.150,284.469 71.600,284.704 71.600 C 284.940 71.600,285.193 71.735,285.267 71.900 C 285.464 72.345,289.067 74.800,289.523 74.800 C 289.738 74.800,290.019 75.073,290.147 75.406 C 290.275 75.739,290.834 76.185,291.390 76.396 C 291.945 76.607,292.400 76.936,292.400 77.126 C 292.400 77.316,292.887 77.694,293.483 77.965 C 294.078 78.236,294.808 78.805,295.105 79.229 C 295.402 79.653,295.800 80.000,295.988 80.000 C 296.177 80.000,296.967 80.585,297.744 81.300 C 300.841 84.151,303.275 86.217,303.921 86.543 C 304.294 86.732,305.320 87.722,306.200 88.743 C 307.080 89.765,308.990 91.680,310.444 93.000 C 311.898 94.320,313.248 95.706,313.444 96.079 C 313.784 96.728,315.894 99.208,318.700 102.256 C 319.415 103.033,320.000 103.823,320.000 104.012 C 320.000 104.200,320.331 104.590,320.737 104.877 C 321.142 105.165,321.695 105.819,321.967 106.330 C 322.238 106.842,322.762 107.584,323.130 107.980 C 323.499 108.376,324.610 109.907,325.600 111.383 C 326.590 112.859,327.625 114.308,327.900 114.604 C 328.175 114.901,328.400 115.248,328.400 115.376 C 328.400 115.504,329.094 116.642,329.942 117.905 C 330.789 119.167,331.824 120.830,332.242 121.600 C 332.659 122.370,333.111 123.090,333.246 123.200 C 333.381 123.310,333.618 123.804,333.772 124.298 C 333.926 124.791,334.276 125.421,334.548 125.698 C 334.821 125.974,335.651 127.460,336.393 129.000 C 337.135 130.540,337.864 131.890,338.013 132.000 C 338.162 132.110,338.504 132.875,338.773 133.700 C 339.042 134.525,339.414 135.200,339.599 135.200 C 339.785 135.200,340.058 135.785,340.207 136.500 C 340.356 137.215,340.820 138.395,341.239 139.123 C 341.657 139.850,342.000 140.667,342.000 140.938 C 342.000 141.209,342.366 142.144,342.814 143.015 C 343.262 143.887,343.823 145.365,344.062 146.300 C 344.300 147.235,344.629 148.000,344.793 148.000 C 344.957 148.000,345.320 149.080,345.600 150.400 C 345.880 151.720,346.244 152.800,346.409 152.800 C 346.574 152.800,346.930 153.970,347.200 155.400 C 347.470 156.830,347.821 158.000,347.981 158.000 C 348.141 158.000,348.509 159.260,348.800 160.800 C 349.091 162.340,349.440 163.600,349.577 163.600 C 349.713 163.600,350.165 165.805,350.579 168.500 C 350.994 171.195,351.464 173.580,351.624 173.800 C 351.784 174.020,352.131 176.540,352.396 179.400 C 352.660 182.260,353.084 185.032,353.338 185.561 C 353.986 186.908,353.986 213.492,353.338 214.839 C 353.084 215.368,352.660 218.140,352.396 221.000 C 352.131 223.860,351.783 226.380,351.622 226.600 C 351.461 226.820,351.000 229.205,350.597 231.900 C 350.194 234.595,349.743 236.800,349.596 236.800 C 349.449 236.800,349.091 238.060,348.800 239.600 C 348.509 241.140,348.141 242.400,347.981 242.400 C 347.822 242.400,347.563 243.255,347.408 244.300 C 347.252 245.345,346.798 246.920,346.399 247.800 C 345.999 248.680,345.546 250.075,345.392 250.900 C 345.237 251.725,344.972 252.400,344.803 252.400 C 344.634 252.400,344.284 253.239,344.026 254.263 C 343.768 255.288,343.296 256.498,342.978 256.952 C 342.660 257.406,342.400 258.056,342.400 258.395 C 342.400 258.734,342.029 259.705,341.575 260.552 C 340.587 262.395,340.738 262.942,342.479 263.835 C 343.206 264.207,343.890 264.632,344.000 264.779 C 344.110 264.925,344.785 265.282,345.500 265.571 C 346.215 265.860,346.800 266.228,346.800 266.388 C 346.800 266.548,347.475 266.977,348.300 267.341 C 350.115 268.142,351.979 269.222,352.714 269.899 C 353.012 270.174,353.693 270.509,354.228 270.643 C 354.763 270.777,355.200 271.020,355.200 271.183 C 355.200 271.345,355.965 271.816,356.900 272.228 C 357.835 272.641,358.690 273.085,358.800 273.215 C 358.910 273.346,360.080 274.059,361.400 274.800 C 362.720 275.541,363.890 276.249,364.000 276.374 C 364.110 276.499,364.740 276.871,365.400 277.200 C 366.060 277.529,366.690 277.906,366.800 278.038 C 366.998 278.274,368.083 278.882,370.800 280.280 C 371.570 280.676,372.290 281.114,372.400 281.253 C 372.591 281.494,373.546 282.019,377.033 283.800 C 377.895 284.240,378.664 284.747,378.742 284.926 C 379.158 285.882,382.000 286.084,382.000 285.158 C 382.000 284.962,382.558 283.587,383.239 282.101 C 384.964 278.340,385.427 277.237,386.052 275.400 C 386.351 274.520,386.700 273.710,386.827 273.600 C 386.955 273.490,387.303 272.500,387.600 271.400 C 387.897 270.300,388.245 269.310,388.373 269.200 C 388.500 269.090,389.212 267.110,389.954 264.800 C 390.696 262.490,391.528 260.060,391.804 259.400 C 392.080 258.740,392.429 257.503,392.580 256.651 C 392.731 255.799,393.015 254.809,393.210 254.451 C 393.835 253.308,396.367 241.737,396.388 239.933 C 396.395 239.347,396.553 238.807,396.741 238.733 C 397.075 238.602,397.815 234.133,399.081 224.600 C 400.383 214.788,399.882 174.363,398.416 171.000 C 398.224 170.560,397.846 168.265,397.575 165.900 C 397.304 163.535,396.928 161.600,396.741 161.600 C 396.553 161.600,396.395 161.105,396.388 160.500 C 396.368 158.677,393.663 146.367,393.202 146.000 C 393.064 145.890,392.717 144.720,392.431 143.400 C 392.145 142.080,391.769 140.820,391.595 140.600 C 391.421 140.380,391.070 139.390,390.816 138.400 C 390.561 137.410,390.109 136.060,389.810 135.400 C 389.511 134.740,389.141 133.525,388.989 132.700 C 388.836 131.875,388.580 131.200,388.419 131.200 C 388.259 131.200,387.890 130.210,387.600 129.000 C 387.310 127.790,386.949 126.800,386.799 126.800 C 386.649 126.800,386.300 126.035,386.022 125.100 C 385.745 124.165,385.111 122.500,384.614 121.400 C 384.116 120.300,383.325 118.547,382.855 117.504 C 382.385 116.462,382.000 115.427,382.000 115.204 C 382.000 114.982,381.820 114.800,381.600 114.800 C 381.380 114.800,381.200 114.580,381.200 114.311 C 381.200 113.804,376.808 104.753,376.391 104.400 C 376.261 104.290,375.918 103.615,375.629 102.900 C 375.340 102.185,374.972 101.600,374.812 101.600 C 374.652 101.600,374.222 100.925,373.855 100.100 C 373.189 98.600,372.388 97.129,371.622 96.000 C 369.865 93.411,369.200 92.314,369.200 92.002 C 369.200 91.803,368.965 91.496,368.678 91.320 C 368.392 91.144,367.843 90.325,367.460 89.500 C 367.076 88.675,366.591 88.000,366.381 88.000 C 366.172 88.000,366.000 87.775,366.000 87.500 C 365.999 87.225,365.554 86.483,365.011 85.851 C 364.467 85.219,363.921 84.381,363.796 83.988 C 363.672 83.595,363.306 83.173,362.985 83.050 C 362.663 82.926,362.400 82.610,362.400 82.346 C 362.400 82.083,362.138 81.582,361.819 81.234 C 360.264 79.540,359.741 78.896,359.032 77.804 C 358.050 76.291,357.608 75.735,356.500 74.616 C 356.005 74.117,355.600 73.548,355.600 73.351 C 355.600 73.155,354.994 72.439,354.254 71.759 C 353.514 71.080,352.839 70.338,352.754 70.111 C 352.226 68.698,336.258 52.450,331.416 48.400 C 329.706 46.970,327.896 45.440,327.392 45.000 C 326.889 44.560,326.010 43.840,325.439 43.400 C 324.868 42.960,323.816 42.108,323.100 41.506 C 322.385 40.905,321.665 40.410,321.500 40.406 C 321.335 40.403,320.861 40.085,320.448 39.700 C 320.034 39.315,319.225 38.640,318.651 38.200 C 318.077 37.760,317.218 37.085,316.743 36.700 C 316.267 36.315,315.738 36.000,315.567 36.000 C 315.397 36.000,315.019 35.775,314.729 35.500 C 313.793 34.615,311.263 32.800,310.964 32.800 C 310.806 32.800,310.086 32.350,309.364 31.800 C 308.643 31.250,307.959 30.800,307.844 30.800 C 307.659 30.800,305.904 29.688,303.888 28.293 C 302.954 27.646,298.974 25.390,297.200 24.501 C 296.430 24.116,295.709 23.681,295.599 23.536 C 295.488 23.391,294.633 22.967,293.699 22.593 C 292.764 22.219,292.000 21.781,292.000 21.621 C 292.000 21.460,291.280 21.090,290.400 20.800 C 289.520 20.510,288.800 20.141,288.800 19.980 C 288.800 19.820,287.990 19.449,287.000 19.157 C 286.010 18.865,285.200 18.513,285.200 18.377 C 285.200 18.240,284.480 17.890,283.600 17.600 C 282.720 17.310,282.000 16.935,282.000 16.768 C 282.000 16.600,281.415 16.340,280.700 16.189 C 279.985 16.037,278.860 15.597,278.200 15.211 C 277.540 14.824,276.145 14.265,275.100 13.967 C 274.055 13.669,273.200 13.298,273.200 13.141 C 273.200 12.985,272.210 12.636,271.000 12.365 C 269.790 12.094,268.800 11.736,268.800 11.568 C 268.800 11.401,268.215 11.140,267.500 10.990 C 266.785 10.839,265.660 10.478,265.000 10.189 C 263.043 9.329,255.834 7.200,254.881 7.200 C 254.397 7.200,254.000 7.040,254.000 6.845 C 254.000 6.650,252.785 6.266,251.300 5.992 C 249.815 5.718,248.320 5.350,247.978 5.175 C 247.636 4.999,245.566 4.555,243.378 4.188 C 241.190 3.821,239.040 3.368,238.600 3.181 C 238.160 2.995,236.090 2.638,234.000 2.388 C 231.910 2.138,229.840 1.777,229.400 1.586 C 227.194 0.626,189.773 -0.515,184.400 0.214 M201.476 9.013 C 209.515 13.019,209.579 31.635,201.569 35.913 C 195.700 39.047,189.026 35.711,186.983 28.622 C 183.153 15.332,191.498 4.041,201.476 9.013 M224.274 9.670 C 225.342 10.673,225.437 12.105,224.802 17.573 C 222.891 34.002,222.837 32.781,225.474 32.794 C 229.087 32.811,230.825 35.175,228.750 37.250 C 227.800 38.200,227.811 38.201,217.000 37.046 C 211.792 36.490,211.336 36.373,210.485 35.385 C 208.562 33.149,210.144 31.403,213.974 31.535 L 216.758 31.631 216.968 30.315 C 217.387 27.697,218.416 16.283,218.249 16.116 C 218.155 16.022,217.136 16.349,215.986 16.844 C 212.726 18.246,209.709 15.290,212.231 13.166 C 215.723 10.226,222.708 8.198,224.274 9.670 M176.517 10.754 C 177.076 11.302,177.564 13.748,178.726 21.829 L 180.218 32.200 182.936 32.062 C 186.611 31.876,188.890 34.499,186.661 36.350 C 185.527 37.291,169.997 39.440,168.832 38.817 C 166.015 37.310,167.758 34.203,171.670 33.760 L 174.017 33.495 173.788 32.247 C 173.662 31.561,173.157 28.133,172.667 24.629 C 171.682 17.597,171.597 17.454,169.413 19.189 C 167.155 20.984,165.319 20.665,164.584 18.350 C 164.178 17.071,164.950 16.049,168.470 13.200 C 173.140 9.421,174.680 8.953,176.517 10.754 M246.800 13.341 C 253.270 16.052,254.592 25.726,249.789 35.218 C 244.324 46.020,230.558 42.273,230.619 30.000 C 230.681 17.532,238.237 9.753,246.800 13.341 M194.942 13.270 C 191.792 14.794,191.612 28.778,194.710 31.215 C 198.551 34.236,201.013 30.930,200.979 22.800 C 200.943 14.400,198.986 11.312,194.942 13.270 M155.032 15.159 C 159.626 17.245,163.600 25.447,163.600 32.840 C 163.600 42.385,152.326 46.967,146.197 39.914 C 142.272 35.397,140.078 25.833,141.804 20.771 C 143.510 15.771,150.164 12.948,155.032 15.159 M241.315 17.989 C 238.368 19.781,235.257 31.018,236.847 34.126 C 238.790 37.926,242.347 36.936,244.535 31.987 C 248.271 23.535,246.298 14.958,241.315 17.989 M148.125 20.639 C 145.309 23.455,149.293 37.342,153.161 38.192 C 156.152 38.848,157.745 36.756,157.434 32.581 C 156.724 23.053,151.900 16.864,148.125 20.639 M270.522 21.210 C 272.402 22.689,272.196 23.693,267.601 35.400 C 266.910 37.160,266.195 39.050,266.012 39.600 C 265.829 40.150,265.387 41.280,265.029 42.112 L 264.379 43.624 266.976 44.789 C 269.923 46.112,270.586 47.247,269.435 49.003 C 268.450 50.505,267.571 50.469,263.000 48.735 C 251.491 44.369,251.200 44.212,251.200 42.367 C 251.200 40.126,253.339 39.379,256.262 40.600 C 258.367 41.480,258.584 41.386,259.290 39.300 C 259.643 38.255,260.770 35.240,261.794 32.600 C 262.818 29.960,263.749 27.504,263.863 27.143 C 264.046 26.566,263.753 26.512,261.442 26.697 C 258.359 26.945,257.600 26.526,257.600 24.580 C 257.600 22.349,258.257 21.963,263.388 21.181 C 264.922 20.948,266.257 20.676,266.355 20.578 C 266.862 20.071,269.603 20.487,270.522 21.210 M129.755 23.150 C 130.129 23.563,131.251 25.858,132.249 28.250 C 139.092 44.655,138.072 43.000,140.718 41.994 C 144.183 40.678,145.600 41.208,145.600 43.819 C 145.600 45.365,145.163 45.730,141.400 47.328 C 140.080 47.888,137.051 49.179,134.668 50.197 C 129.883 52.241,128.533 52.352,127.651 50.772 C 126.648 48.976,127.295 47.816,129.998 46.568 C 131.319 45.959,132.400 45.393,132.400 45.311 C 132.400 45.003,126.652 31.386,126.393 31.082 C 126.245 30.906,125.619 31.446,125.002 32.282 C 122.912 35.111,121.822 35.459,120.182 33.818 C 118.715 32.352,118.926 31.663,122.181 27.277 C 125.943 22.210,127.926 21.129,129.755 23.150 M290.049 30.059 C 297.742 33.369,297.676 44.185,289.909 53.009 C 281.896 62.112,268.837 55.138,272.239 43.573 C 275.475 32.569,282.860 26.966,290.049 30.059 M112.139 33.213 C 120.338 37.067,125.425 50.863,120.742 56.544 C 114.731 63.836,105.731 60.668,100.100 49.278 C 95.122 39.209,102.878 28.860,112.139 33.213 M284.974 34.751 C 282.525 36.244,278.555 42.747,277.660 46.731 C 276.560 51.628,280.772 53.905,284.172 50.250 C 289.641 44.370,291.710 36.354,288.192 34.677 C 286.438 33.840,286.468 33.840,284.974 34.751 M105.800 38.062 C 103.337 39.409,103.354 41.828,105.862 46.837 C 109.492 54.090,113.307 56.755,116.082 53.979 C 119.982 50.080,110.543 35.468,105.800 38.062 M312.693 44.458 C 315.552 46.224,315.416 46.580,307.823 57.200 C 302.197 65.070,301.993 65.424,302.741 66.000 C 303.169 66.330,304.168 67.103,304.960 67.717 C 308.980 70.836,304.993 73.847,300.746 70.900 C 299.557 70.075,297.159 68.410,295.418 67.200 C 289.163 62.854,288.442 61.872,290.029 59.854 C 291.153 58.425,292.326 58.526,294.581 60.248 C 296.863 61.990,296.221 62.491,301.813 54.600 L 306.064 48.600 303.567 48.355 C 300.151 48.020,299.034 46.358,300.661 44.034 C 301.555 42.757,310.449 43.070,312.693 44.458 M88.300 47.114 C 88.685 47.507,91.610 51.280,94.800 55.499 C 101.211 63.977,100.913 63.761,103.482 61.800 C 105.619 60.168,106.217 60.088,107.474 61.270 C 109.160 62.853,108.737 64.099,105.700 66.504 C 94.346 75.494,93.737 75.802,92.145 73.373 C 91.230 71.975,91.709 70.767,93.800 69.200 C 96.090 67.484,96.228 67.888,91.000 61.010 C 86.993 55.738,85.600 54.361,85.600 55.674 C 85.600 56.676,83.910 59.575,83.193 59.802 C 80.355 60.703,79.164 57.829,80.744 53.894 C 81.383 52.302,82.127 50.420,82.397 49.711 C 83.554 46.675,86.570 45.348,88.300 47.114 M328.053 56.827 C 335.803 60.781,335.701 69.002,327.803 77.026 C 320.369 84.577,312.318 84.481,308.397 76.793 C 303.789 67.761,319.067 52.243,328.053 56.827 M76.368 62.020 C 88.430 67.665,91.684 82.496,81.769 86.639 C 72.069 90.692,57.112 73.905,63.000 65.574 C 66.588 60.498,70.750 59.391,76.368 62.020 M322.521 62.032 C 318.824 63.862,313.120 71.056,313.120 73.890 C 313.120 79.933,320.469 77.366,326.275 69.295 C 330.120 63.950,327.783 59.427,322.521 62.032 M68.755 66.600 C 66.067 68.061,66.392 70.783,69.739 74.833 C 76.019 82.431,82.404 84.162,82.399 78.264 C 82.394 73.280,72.317 64.664,68.755 66.600 M343.000 75.025 C 347.786 76.731,348.586 77.210,349.099 78.681 C 349.841 80.812,350.222 80.414,336.434 91.936 C 334.765 93.331,333.246 94.618,333.058 94.798 C 332.870 94.977,333.455 96.102,334.358 97.298 C 336.623 100.298,336.155 102.400,333.222 102.400 C 331.697 102.400,321.200 90.491,321.200 88.761 C 321.200 85.870,324.029 85.462,326.475 88.000 C 328.755 90.365,328.578 90.341,330.600 88.563 C 331.480 87.789,334.045 85.621,336.300 83.746 C 341.052 79.794,341.019 79.870,338.396 78.999 C 335.572 78.061,334.774 76.238,336.416 74.475 C 337.516 73.294,338.333 73.362,343.000 75.025 M57.522 82.924 C 59.827 84.726,63.530 87.605,65.750 89.323 L 69.786 92.447 71.529 90.423 C 75.768 85.503,78.753 89.582,74.674 94.721 C 73.505 96.195,71.325 98.988,69.830 100.929 C 66.613 105.105,65.663 105.700,64.088 104.530 C 62.486 103.339,62.511 102.040,64.179 99.855 C 66.047 97.407,66.418 97.988,59.557 92.619 C 53.048 87.526,53.082 87.535,52.648 90.705 C 52.249 93.613,50.630 94.477,48.446 92.947 C 47.551 92.321,47.525 92.157,47.794 88.847 C 48.662 78.151,50.209 77.209,57.522 82.924 M358.037 92.529 C 364.400 95.882,365.236 103.426,359.874 109.096 C 350.112 119.417,335.600 117.921,335.600 106.592 C 335.600 97.923,350.523 88.569,358.037 92.529 M49.740 99.127 C 60.786 104.303,64.150 111.972,58.294 118.626 C 54.551 122.878,49.887 123.068,42.613 119.266 C 33.357 114.428,30.561 106.676,35.822 100.443 C 38.912 96.782,43.758 96.324,49.740 99.127 M350.916 98.178 C 343.121 101.807,339.134 106.913,341.921 109.698 C 345.268 113.044,359.553 104.426,358.178 99.890 C 357.331 97.096,354.615 96.456,350.916 98.178 M39.631 103.836 C 36.058 106.842,41.828 113.384,50.199 115.817 C 55.656 117.403,57.799 112.996,53.537 108.952 C 48.725 104.387,41.941 101.891,39.631 103.836 M369.367 115.196 C 374.102 118.317,375.191 119.721,374.430 121.722 C 374.004 122.841,373.164 123.285,356.305 131.299 L 354.410 132.200 355.393 134.200 C 357.016 137.505,356.671 138.926,354.121 139.436 C 352.475 139.765,352.032 139.124,348.032 130.643 C 344.806 123.803,344.728 123.569,345.360 122.606 C 346.869 120.302,348.829 120.816,350.543 123.965 C 351.934 126.521,351.426 126.596,359.732 122.614 C 366.989 119.135,366.526 119.653,364.000 117.838 C 361.683 116.174,361.406 114.958,362.982 113.382 C 364.366 111.998,364.626 112.072,369.367 115.196 M36.470 124.836 C 41.601 127.056,46.024 128.966,46.299 129.079 C 46.604 129.205,47.162 128.498,47.736 127.259 C 49.363 123.747,50.760 123.071,52.674 124.870 C 53.756 125.886,53.812 126.427,53.010 128.140 C 52.685 128.833,51.264 132.100,49.852 135.400 C 47.025 142.007,46.130 143.134,44.273 142.428 C 42.429 141.727,42.175 140.478,43.307 137.676 L 44.291 135.239 43.046 134.663 C 41.673 134.029,37.583 132.247,32.703 130.159 L 29.537 128.803 29.810 131.360 C 30.108 134.143,29.357 135.600,27.622 135.600 C 24.116 135.600,22.238 123.127,25.463 121.253 C 26.623 120.578,26.638 120.583,36.470 124.836 M378.990 135.400 C 382.521 137.601,384.502 143.055,383.202 146.994 C 380.609 154.851,363.880 159.701,358.066 154.281 C 351.123 147.809,355.334 138.302,366.600 135.014 C 367.920 134.629,369.180 134.249,369.400 134.170 C 371.238 133.510,377.182 134.273,378.990 135.400 M370.800 140.398 C 364.164 141.809,359.988 144.434,360.013 147.178 C 360.045 150.796,363.039 151.632,369.378 149.795 C 376.084 147.852,378.535 146.042,378.325 143.187 C 378.099 140.102,375.946 139.304,370.800 140.398 M30.794 140.623 C 41.253 143.088,45.904 149.890,42.170 157.259 C 37.161 167.144,14.616 161.390,14.660 150.237 C 14.691 142.174,21.121 138.343,30.794 140.623 M22.800 145.856 C 14.942 148.505,22.609 156.003,33.333 156.155 C 39.449 156.243,40.424 151.444,34.861 148.633 C 31.637 147.005,24.363 145.330,22.800 145.856 M382.480 157.300 C 382.828 157.575,384.148 158.970,385.413 160.400 C 391.347 167.106,390.854 168.492,381.932 170.185 C 364.850 173.426,366.628 172.640,367.351 176.627 C 367.584 177.915,367.495 178.430,366.923 179.093 C 364.991 181.331,362.787 180.091,362.062 176.359 C 359.097 161.092,359.099 160.800,362.147 160.800 C 363.911 160.800,364.686 161.745,365.026 164.311 C 365.374 166.934,365.341 166.917,368.659 166.222 C 370.167 165.906,373.560 165.246,376.200 164.756 C 381.887 163.701,381.591 163.863,380.332 162.496 C 377.884 159.839,377.705 159.283,378.829 157.854 C 379.736 156.701,381.402 156.448,382.480 157.300 M38.240 163.906 C 39.041 164.441,39.672 166.060,39.439 166.986 C 39.313 167.487,38.933 169.946,38.594 172.449 C 37.329 181.787,36.829 183.200,34.791 183.200 C 32.822 183.200,31.901 181.924,32.248 179.679 C 32.815 176.022,33.207 176.359,27.218 175.351 C 24.257 174.853,20.703 174.325,19.320 174.177 L 16.804 173.907 17.627 175.768 C 19.084 179.061,17.699 181.552,14.948 180.585 C 13.728 180.155,10.037 172.153,10.012 169.882 C 9.973 166.317,10.703 166.278,27.739 168.938 C 31.791 169.570,33.719 169.727,33.809 169.432 C 33.881 169.195,34.057 168.132,34.199 167.071 C 34.570 164.302,36.532 162.766,38.240 163.906 M383.987 179.235 C 390.754 180.686,394.384 189.054,390.590 194.453 C 385.289 201.995,367.829 201.889,364.056 194.293 C 359.177 184.473,370.063 176.248,383.987 179.235 M375.000 185.225 C 370.862 185.909,370.394 186.057,369.212 187.051 C 367.915 188.143,367.580 190.067,368.414 191.627 C 370.317 195.181,385.255 194.130,386.828 190.332 C 388.544 186.190,383.177 183.873,375.000 185.225 M27.662 185.778 C 34.677 187.265,38.417 193.169,36.229 199.301 C 32.765 209.008,11.089 208.802,8.188 199.034 C 5.244 189.120,14.310 182.948,27.662 185.778 M16.457 191.802 C 10.561 193.463,11.153 198.284,17.416 199.615 C 26.766 201.601,34.942 197.956,30.973 193.570 C 29.260 191.677,20.632 190.626,16.457 191.802 M368.051 203.651 C 368.793 204.393,368.875 204.826,368.698 207.041 L 368.494 209.581 369.747 209.770 C 371.913 210.096,384.098 210.836,384.281 210.652 C 384.377 210.556,384.073 209.727,383.605 208.809 C 382.437 206.520,382.647 204.774,384.177 204.044 C 386.028 203.161,387.014 204.013,389.450 208.600 C 393.097 215.470,392.207 217.935,386.269 217.408 C 378.617 216.728,368.963 216.125,368.500 216.299 C 368.206 216.409,368.000 217.198,368.000 218.217 C 368.000 222.231,364.726 224.451,363.150 221.506 C 362.321 219.958,363.461 204.800,364.488 203.706 C 365.556 202.569,366.948 202.548,368.051 203.651 M34.817 206.409 C 36.100 207.096,36.342 208.038,36.988 214.842 C 37.330 218.449,37.716 221.975,37.845 222.678 C 38.034 223.702,37.878 224.159,37.059 224.978 C 34.989 227.047,33.037 225.836,32.583 222.201 C 32.422 220.913,32.071 219.849,31.769 219.733 C 31.168 219.502,18.695 220.710,17.283 221.135 L 16.366 221.411 17.572 223.006 C 19.741 225.874,18.522 228.880,15.509 228.092 C 14.515 227.832,9.289 220.903,8.799 219.197 C 8.375 217.718,9.095 215.879,10.276 215.426 C 10.872 215.197,29.498 213.215,31.155 213.204 C 31.593 213.201,31.655 212.732,31.450 210.989 C 31.126 208.230,31.418 207.013,32.532 206.474 C 33.663 205.927,33.903 205.920,34.817 206.409 M380.356 225.332 C 387.507 227.892,390.290 232.734,388.343 239.231 C 384.843 250.913,359.260 245.812,360.102 233.600 C 360.694 225.027,369.481 221.440,380.356 225.332 M34.892 230.258 C 43.035 233.398,43.253 244.747,35.247 248.764 C 21.845 255.488,8.364 248.850,12.974 237.798 C 15.395 231.995,28.079 227.632,34.892 230.258 M366.742 230.607 C 362.830 232.732,365.008 236.559,371.200 238.438 C 379.576 240.980,385.679 238.922,383.559 234.269 C 382.227 231.347,370.201 228.727,366.742 230.607 M27.000 236.059 C 18.118 237.698,14.186 242.449,19.474 245.153 C 22.885 246.898,34.406 243.692,35.887 240.587 C 37.718 236.747,33.876 234.790,27.000 236.059 M361.269 245.462 C 362.159 246.268,362.199 247.735,361.392 250.022 C 360.629 252.186,360.136 251.867,368.486 254.623 C 376.041 257.117,376.336 257.139,375.646 255.161 C 374.433 251.680,376.753 249.015,379.346 250.911 C 380.987 252.111,382.595 261.633,381.451 263.378 C 380.270 265.181,379.460 265.065,369.204 261.634 C 357.872 257.843,358.658 257.951,358.029 260.100 C 357.024 263.532,355.051 264.675,353.131 262.938 C 352.085 261.991,352.143 261.665,354.813 253.559 C 357.733 244.695,358.860 243.282,361.269 245.462 M42.892 248.700 C 44.028 249.990,48.919 263.870,48.636 264.999 C 48.069 267.258,44.900 267.329,43.922 265.104 C 43.607 264.387,43.090 263.234,42.774 262.542 L 42.200 261.284 35.016 263.994 C 26.949 267.038,27.024 266.979,29.208 268.525 C 31.605 270.222,31.834 272.104,29.805 273.433 C 28.119 274.538,20.714 269.547,19.461 266.461 C 18.183 263.313,17.813 263.531,35.598 256.965 C 40.316 255.224,40.205 255.350,39.216 252.841 C 38.333 250.601,38.449 249.047,39.545 248.407 C 40.589 247.797,42.223 247.940,42.892 248.700 M159.416 377.593 C 158.546 377.762,157.766 378.103,157.683 378.351 C 157.601 378.598,157.323 378.800,157.066 378.800 C 153.168 378.800,150.033 388.937,152.453 393.716 C 153.284 395.357,156.170 398.400,156.895 398.400 C 157.094 398.400,157.513 398.655,157.825 398.968 C 158.823 399.965,162.650 400.048,202.200 399.923 C 232.953 399.825,241.207 399.693,242.000 399.283 C 244.658 397.908,245.397 397.281,247.576 394.553 C 249.213 392.503,249.141 384.568,247.467 382.526 C 245.410 380.016,244.380 379.148,242.000 377.917 C 240.865 377.330,162.350 377.022,159.416 377.593 M156.902 405.990 C 156.189 406.159,155.315 406.539,154.960 406.833 C 154.605 407.128,153.943 407.556,153.488 407.784 C 147.129 410.983,148.452 423.131,155.600 427.180 L 157.400 428.200 197.545 428.315 C 236.424 428.426,243.178 428.265,243.527 427.220 C 243.604 426.989,243.889 426.800,244.161 426.800 C 245.099 426.800,247.835 424.076,248.816 422.166 C 249.905 420.046,250.292 413.085,249.354 412.485 C 249.109 412.328,248.770 411.750,248.601 411.200 C 248.252 410.063,245.341 407.200,244.533 407.200 C 244.240 407.200,244.000 407.028,244.000 406.819 C 244.000 405.671,161.550 404.887,156.902 405.990 M183.043 431.833 C 181.176 436.697,183.930 444.089,188.484 446.435 C 191.666 448.075,209.571 447.406,211.769 445.565 C 215.729 442.249,216.847 440.031,217.112 434.971 L 217.309 431.200 200.297 431.200 C 185.154 431.200,183.259 431.269,183.043 431.833 " stroke="none" fill="#fc8c24" fill-rule="evenodd"></path><path id="path2" d="M191.200 72.000 C 191.200 72.220,190.175 72.400,188.921 72.400 C 185.675 72.400,177.548 73.182,176.600 73.585 C 176.160 73.773,173.955 74.143,171.700 74.408 C 169.445 74.673,167.600 75.050,167.600 75.245 C 167.600 75.440,167.105 75.606,166.500 75.614 C 164.881 75.635,154.694 78.044,153.000 78.806 C 152.560 79.004,151.390 79.372,150.400 79.622 C 149.410 79.873,148.420 80.217,148.200 80.387 C 147.980 80.556,146.855 80.917,145.700 81.188 C 144.545 81.458,143.600 81.822,143.600 81.997 C 143.600 82.171,143.108 82.437,142.506 82.588 C 141.905 82.739,140.459 83.298,139.294 83.831 C 138.129 84.364,136.912 84.800,136.588 84.800 C 136.265 84.800,136.000 84.951,136.000 85.135 C 136.000 85.319,135.010 85.807,133.800 86.218 C 132.590 86.629,131.600 87.094,131.600 87.252 C 131.600 87.409,130.930 87.759,130.111 88.029 C 129.292 88.300,128.379 88.764,128.082 89.060 C 127.786 89.357,127.299 89.600,127.000 89.600 C 126.701 89.600,126.219 89.834,125.929 90.119 C 125.638 90.405,124.320 91.248,123.000 91.993 C 121.680 92.738,120.510 93.469,120.400 93.618 C 120.290 93.767,119.587 94.203,118.838 94.587 C 118.088 94.971,117.278 95.443,117.038 95.637 C 116.797 95.830,116.034 96.441,115.342 96.994 C 114.650 97.547,113.880 98.000,113.630 98.000 C 113.380 98.000,113.071 98.270,112.945 98.600 C 112.818 98.930,112.474 99.200,112.180 99.200 C 111.886 99.200,111.410 99.531,111.123 99.937 C 110.835 100.342,110.240 100.865,109.800 101.100 C 107.889 102.121,96.892 112.775,94.873 115.563 C 94.231 116.449,93.592 117.059,93.453 116.920 C 93.314 116.781,93.198 116.922,93.195 117.233 C 93.192 117.545,92.832 118.250,92.394 118.800 C 88.647 123.515,87.558 125.107,86.104 128.000 C 85.717 128.770,85.189 129.536,84.931 129.702 C 84.673 129.869,84.344 130.544,84.199 131.202 C 84.055 131.861,83.785 132.400,83.599 132.400 C 83.414 132.400,83.054 133.030,82.800 133.800 C 82.546 134.570,82.172 135.200,81.969 135.200 C 81.766 135.200,81.600 135.395,81.600 135.633 C 81.600 136.042,80.013 139.882,78.390 143.400 C 77.984 144.280,77.530 145.675,77.381 146.500 C 77.233 147.325,76.973 148.000,76.805 148.000 C 76.637 148.000,76.260 149.080,75.967 150.400 C 75.675 151.720,75.321 152.800,75.181 152.800 C 75.042 152.800,74.709 153.835,74.442 155.100 C 74.175 156.365,73.794 157.760,73.595 158.200 C 73.126 159.238,72.103 164.347,71.352 169.400 C 71.026 171.600,70.585 173.940,70.373 174.600 C 69.050 178.724,68.982 204.000,70.294 204.000 C 71.337 204.000,74.000 203.092,74.000 202.737 C 74.000 202.552,74.247 202.400,74.548 202.400 C 75.021 202.400,78.489 200.084,81.544 197.728 C 84.545 195.413,91.822 188.647,93.406 186.699 C 94.267 185.641,97.019 182.183,97.400 181.682 C 97.620 181.393,98.250 180.630,98.800 179.987 C 99.350 179.344,100.370 178.139,101.067 177.309 C 101.764 176.479,102.979 175.058,103.767 174.152 C 104.555 173.245,105.200 172.289,105.200 172.028 C 105.200 171.767,105.380 171.664,105.600 171.800 C 105.820 171.936,106.000 171.872,106.000 171.658 C 106.000 171.306,106.685 170.385,108.400 168.433 C 111.318 165.112,113.200 162.816,113.200 162.577 C 113.200 162.420,113.605 161.879,114.100 161.374 C 115.350 160.099,117.612 157.442,119.881 154.583 C 121.919 152.016,122.622 151.164,123.624 150.047 C 125.455 148.007,125.613 147.546,124.898 146.334 C 124.529 145.710,124.036 145.200,123.803 145.200 C 123.569 145.200,122.815 144.705,122.126 144.100 C 121.437 143.495,120.401 142.640,119.823 142.200 C 119.245 141.760,118.199 140.905,117.497 140.300 C 116.796 139.695,116.037 139.194,115.811 139.187 C 115.265 139.171,113.915 137.293,114.299 137.086 C 114.465 136.996,115.455 136.692,116.500 136.410 C 117.545 136.127,118.400 135.757,118.400 135.588 C 118.400 135.418,119.300 135.064,120.400 134.800 C 121.500 134.536,122.400 134.176,122.400 134.000 C 122.400 133.824,123.300 133.464,124.400 133.200 C 125.500 132.936,126.400 132.597,126.400 132.447 C 126.400 132.297,127.255 131.929,128.300 131.629 C 129.345 131.329,130.380 130.954,130.600 130.795 C 130.820 130.636,131.990 130.188,133.200 129.800 C 134.410 129.412,135.580 128.961,135.800 128.799 C 136.020 128.637,136.892 128.281,137.739 128.008 C 138.585 127.736,139.755 127.263,140.339 126.959 C 140.922 126.654,141.702 126.404,142.071 126.402 C 142.441 126.401,142.981 126.175,143.271 125.900 C 143.891 125.314,146.362 124.400,147.328 124.400 C 147.698 124.400,148.000 124.253,148.000 124.072 C 148.000 123.892,148.900 123.500,150.000 123.200 C 151.100 122.900,152.000 122.508,152.000 122.328 C 152.000 122.147,152.281 122.000,152.624 122.000 C 152.967 122.000,153.137 121.822,153.003 121.605 C 152.864 121.380,153.020 121.309,153.363 121.441 C 154.441 121.855,156.910 120.814,156.376 120.171 C 155.991 119.707,155.802 119.756,155.224 120.470 C 154.564 121.285,154.520 121.290,154.245 120.574 C 154.087 120.162,154.068 119.935,154.203 120.070 C 154.338 120.205,155.611 119.119,157.032 117.657 C 158.452 116.196,160.536 114.055,161.662 112.900 C 162.789 111.745,163.871 110.800,164.069 110.800 C 164.266 110.800,164.918 110.305,165.518 109.700 C 166.117 109.095,167.101 108.345,167.704 108.032 C 168.307 107.720,168.800 107.337,168.800 107.181 C 168.800 107.025,169.340 106.673,170.000 106.400 C 170.660 106.127,171.200 105.762,171.200 105.591 C 171.200 105.419,171.740 105.090,172.400 104.860 C 173.060 104.630,173.600 104.290,173.600 104.104 C 173.600 103.918,174.590 103.429,175.800 103.018 C 177.010 102.607,178.000 102.122,178.000 101.941 C 178.000 101.760,178.810 101.408,179.800 101.158 C 180.790 100.909,181.600 100.571,181.600 100.407 C 181.600 100.243,182.680 99.880,184.000 99.600 C 185.320 99.320,186.400 98.952,186.400 98.782 C 186.400 98.612,187.660 98.247,189.200 97.972 C 190.740 97.697,192.000 97.346,192.000 97.192 C 192.000 96.685,199.929 96.000,205.800 96.000 C 211.671 96.000,219.600 96.685,219.600 97.192 C 219.600 97.346,220.860 97.697,222.400 97.972 C 223.940 98.247,225.200 98.612,225.200 98.782 C 225.200 98.952,226.280 99.320,227.600 99.600 C 228.920 99.880,230.000 100.243,230.000 100.407 C 230.000 100.571,230.810 100.909,231.800 101.158 C 232.790 101.408,233.600 101.760,233.600 101.941 C 233.600 102.122,234.590 102.607,235.800 103.018 C 237.010 103.429,238.000 103.918,238.000 104.104 C 238.000 104.290,238.540 104.630,239.200 104.860 C 239.860 105.090,240.400 105.419,240.400 105.591 C 240.400 105.762,240.940 106.127,241.600 106.400 C 242.260 106.673,242.800 107.025,242.800 107.181 C 242.800 107.337,243.293 107.720,243.896 108.032 C 244.499 108.345,245.483 109.095,246.082 109.700 C 246.682 110.305,247.334 110.800,247.531 110.800 C 247.729 110.800,248.860 111.798,250.045 113.018 C 251.230 114.238,253.235 116.281,254.500 117.559 C 255.765 118.837,256.800 120.068,256.800 120.295 C 256.800 120.522,257.250 121.003,257.800 121.363 C 258.350 121.724,258.800 122.284,258.800 122.609 C 258.800 122.934,258.984 123.200,259.210 123.200 C 259.435 123.200,259.791 123.650,260.000 124.200 C 260.209 124.750,260.578 125.200,260.819 125.200 C 261.060 125.200,260.966 125.491,260.610 125.848 C 260.253 126.204,260.023 126.557,260.098 126.632 C 260.342 126.875,262.000 126.316,262.000 125.991 C 262.000 125.817,262.360 125.769,262.800 125.884 C 263.240 125.999,263.600 125.913,263.600 125.693 C 263.600 125.473,264.034 125.210,264.564 125.109 C 265.508 124.929,266.392 127.710,265.556 128.227 C 265.098 128.511,264.953 131.582,265.390 131.765 C 265.615 131.860,265.575 131.951,265.300 131.968 C 265.025 131.986,264.800 132.330,264.800 132.733 C 264.800 133.137,264.675 133.592,264.522 133.745 C 264.369 133.898,264.201 134.333,264.148 134.712 C 264.075 135.242,264.230 135.183,264.826 134.456 C 265.414 133.739,265.600 133.667,265.600 134.156 C 265.600 134.510,265.746 134.800,265.924 134.800 C 266.103 134.800,266.479 135.700,266.761 136.800 C 267.043 137.900,267.409 138.800,267.573 138.800 C 267.738 138.800,268.103 139.835,268.385 141.100 C 268.666 142.365,269.022 143.490,269.175 143.600 C 269.547 143.867,270.800 151.055,270.800 152.923 C 270.800 153.735,270.980 154.400,271.200 154.400 C 271.452 154.400,271.600 157.067,271.600 161.600 C 271.600 166.133,271.452 168.800,271.200 168.800 C 270.980 168.800,270.800 169.465,270.800 170.277 C 270.800 172.145,269.547 179.333,269.175 179.600 C 269.022 179.710,268.666 180.835,268.385 182.100 C 268.103 183.365,267.738 184.400,267.573 184.400 C 267.409 184.400,267.043 185.300,266.761 186.400 C 266.479 187.500,266.132 188.400,265.988 188.400 C 265.845 188.400,265.490 189.120,265.200 190.000 C 264.910 190.880,264.557 191.600,264.416 191.600 C 264.276 191.600,263.933 192.230,263.654 193.000 C 263.376 193.770,263.007 194.400,262.834 194.400 C 262.662 194.400,262.187 195.210,261.778 196.200 C 261.370 197.190,260.888 198.000,260.708 198.000 C 260.528 198.000,260.209 198.450,260.000 199.000 C 259.791 199.550,259.435 200.000,259.210 200.000 C 258.984 200.000,258.800 200.219,258.800 200.486 C 258.800 200.753,258.453 201.338,258.028 201.786 C 257.603 202.234,256.070 203.860,254.621 205.400 C 249.843 210.476,247.895 212.400,247.531 212.400 C 247.334 212.400,246.682 212.895,246.082 213.500 C 245.483 214.105,244.499 214.855,243.896 215.168 C 243.293 215.480,242.800 215.863,242.800 216.019 C 242.800 216.175,242.260 216.527,241.600 216.800 C 240.940 217.073,240.400 217.438,240.400 217.609 C 240.400 217.781,239.860 218.110,239.200 218.340 C 238.540 218.570,238.000 218.933,238.000 219.147 C 238.000 219.361,237.448 219.658,236.773 219.806 C 236.098 219.954,235.453 220.317,235.340 220.613 C 235.226 220.909,234.608 221.266,233.967 221.407 C 233.325 221.548,232.800 221.829,232.800 222.032 C 232.800 222.530,233.891 222.501,234.204 221.993 C 234.342 221.770,234.634 221.698,234.853 221.833 C 235.072 221.968,235.630 221.746,236.094 221.339 C 236.558 220.933,236.806 220.825,236.645 221.100 C 236.484 221.375,236.543 221.600,236.776 221.600 C 237.009 221.600,237.200 221.449,237.200 221.264 C 237.200 221.079,238.190 220.690,239.400 220.400 C 240.610 220.110,241.600 219.737,241.600 219.571 C 241.600 219.406,242.320 219.149,243.200 219.000 C 244.080 218.851,244.800 218.611,244.800 218.465 C 244.800 218.319,245.274 218.173,245.853 218.139 C 246.431 218.106,247.016 217.903,247.152 217.689 C 247.289 217.475,248.030 217.169,248.800 217.008 C 249.570 216.847,250.740 216.480,251.400 216.192 C 253.101 215.451,255.745 214.621,256.100 214.718 C 256.265 214.763,256.400 214.640,256.400 214.445 C 256.400 214.249,256.985 213.978,257.700 213.842 C 258.415 213.707,259.450 213.362,260.000 213.076 C 260.550 212.790,261.900 212.309,263.000 212.008 C 264.100 211.706,265.090 211.345,265.200 211.205 C 265.310 211.065,266.615 210.627,268.100 210.231 C 269.585 209.835,270.800 209.376,270.800 209.210 C 270.800 209.045,271.880 208.680,273.200 208.400 C 274.520 208.120,275.600 207.755,275.600 207.590 C 275.600 207.424,276.275 207.163,277.100 207.008 C 277.925 206.854,279.320 206.404,280.200 206.009 C 281.080 205.614,282.385 205.166,283.100 205.014 C 283.815 204.861,284.400 204.599,284.400 204.432 C 284.400 204.264,285.378 203.908,286.574 203.641 C 287.770 203.373,288.805 203.015,288.874 202.844 C 288.943 202.674,290.144 202.249,291.543 201.901 L 294.086 201.268 293.837 202.513 C 293.701 203.197,293.476 204.712,293.339 205.879 C 293.202 207.045,292.971 208.000,292.827 208.000 C 292.682 208.000,292.322 209.842,292.027 212.093 C 291.732 214.344,291.343 216.459,291.162 216.793 C 290.847 217.376,290.247 220.475,288.955 228.200 C 288.624 230.180,288.247 232.070,288.116 232.400 C 287.743 233.346,287.637 233.913,286.927 238.800 C 286.560 241.330,286.129 243.490,285.970 243.600 C 285.811 243.710,285.452 245.555,285.171 247.700 C 284.891 249.845,284.545 251.600,284.402 251.600 C 284.259 251.600,283.907 253.355,283.618 255.500 C 283.330 257.645,282.958 259.580,282.790 259.800 C 282.623 260.020,282.263 261.910,281.990 264.000 C 281.717 266.090,281.337 267.971,281.147 268.180 C 280.956 268.389,280.800 268.959,280.800 269.447 C 280.800 271.741,280.389 271.643,277.247 268.596 C 275.555 266.956,273.567 265.115,272.829 264.507 C 272.092 263.898,270.888 262.801,270.154 262.069 L 268.819 260.739 267.909 261.758 C 267.409 262.319,266.280 263.612,265.400 264.631 C 264.520 265.651,263.434 266.900,262.987 267.407 C 262.540 267.914,261.730 268.918,261.187 269.637 C 260.644 270.357,259.750 271.452,259.200 272.070 C 257.541 273.936,255.364 276.475,253.431 278.800 C 252.425 280.010,250.881 281.761,250.001 282.691 C 249.120 283.621,248.400 284.502,248.400 284.649 C 248.400 284.797,247.779 285.566,247.021 286.359 C 245.044 288.425,244.398 289.163,242.600 291.405 C 241.720 292.502,240.685 293.635,240.300 293.923 C 239.915 294.210,239.600 294.615,239.600 294.823 C 239.600 295.030,238.925 295.893,238.100 296.740 C 237.275 297.588,235.430 299.678,234.000 301.387 C 232.570 303.095,230.987 304.967,230.481 305.546 C 229.240 306.970,225.543 311.150,224.800 311.971 C 224.470 312.335,223.480 313.523,222.600 314.612 C 221.720 315.700,220.730 316.884,220.400 317.242 C 220.070 317.601,218.810 319.036,217.600 320.431 C 215.313 323.067,205.305 333.053,203.200 334.800 C 202.537 335.350,201.681 336.084,201.297 336.432 C 200.240 337.391,194.424 341.672,192.500 342.908 C 191.565 343.509,190.125 344.432,189.300 344.960 C 188.475 345.488,187.395 346.040,186.900 346.187 C 186.405 346.334,186.000 346.610,186.000 346.801 C 186.000 346.992,185.370 347.376,184.600 347.654 C 183.830 347.933,183.200 348.276,183.200 348.416 C 183.200 348.557,182.480 348.910,181.600 349.200 C 180.720 349.490,180.000 349.879,180.000 350.064 C 180.000 350.249,179.735 350.400,179.412 350.400 C 179.088 350.400,177.873 350.829,176.712 351.353 C 175.550 351.877,174.150 352.439,173.600 352.602 C 173.050 352.765,172.420 353.036,172.200 353.205 C 171.980 353.374,170.360 353.826,168.600 354.208 C 166.840 354.590,165.220 355.042,165.000 355.212 C 164.600 355.521,159.755 356.322,157.300 356.484 C 156.585 356.531,156.000 356.712,156.000 356.885 C 156.000 357.058,154.849 357.200,153.443 357.200 C 150.561 357.200,150.507 357.255,150.511 360.196 C 150.519 365.222,154.082 369.600,158.164 369.600 C 158.708 369.600,159.265 369.781,159.402 370.003 C 159.724 370.524,235.340 370.542,236.317 370.022 C 236.692 369.822,238.125 369.440,239.500 369.174 C 240.875 368.908,242.000 368.579,242.000 368.443 C 242.000 368.307,242.495 367.968,243.100 367.690 C 247.316 365.753,249.763 361.152,250.385 353.991 C 250.621 351.267,250.966 348.940,251.150 348.819 C 251.335 348.699,251.726 347.655,252.019 346.500 C 252.312 345.345,252.668 344.400,252.812 344.400 C 252.955 344.400,253.310 343.680,253.600 342.800 C 253.890 341.920,254.257 341.200,254.415 341.200 C 254.574 341.200,254.927 340.660,255.200 340.000 C 255.473 339.340,255.843 338.800,256.022 338.800 C 256.200 338.800,256.454 338.461,256.585 338.048 C 256.716 337.634,257.179 336.869,257.613 336.348 C 258.047 335.826,258.897 334.800,259.501 334.066 C 261.391 331.771,267.685 325.465,270.361 323.183 C 273.622 320.404,281.990 312.093,284.600 309.042 C 285.700 307.756,287.185 306.058,287.900 305.268 C 288.615 304.479,289.200 303.601,289.200 303.317 C 289.200 303.032,289.360 302.800,289.555 302.800 C 289.992 302.800,295.600 295.425,295.600 294.852 C 295.600 294.625,295.825 294.296,296.101 294.120 C 296.376 293.944,296.871 293.265,297.201 292.612 C 297.530 291.959,298.070 291.134,298.400 290.778 C 298.730 290.423,299.223 289.787,299.495 289.366 C 302.052 285.410,303.277 283.365,304.624 280.800 C 305.491 279.150,306.314 277.710,306.454 277.600 C 306.593 277.490,307.310 276.230,308.047 274.800 C 308.785 273.370,309.500 272.110,309.638 272.000 C 309.775 271.890,310.129 271.125,310.424 270.300 C 310.719 269.475,311.105 268.800,311.280 268.800 C 311.456 268.800,311.600 268.625,311.600 268.412 C 311.600 268.198,312.050 267.040,312.600 265.837 C 313.150 264.635,313.600 263.555,313.600 263.437 C 313.600 263.320,314.030 262.273,314.555 261.112 C 316.857 256.022,317.200 255.230,317.200 255.000 C 317.200 254.866,317.547 253.995,317.971 253.064 C 318.395 252.134,318.872 250.850,319.033 250.213 C 319.193 249.575,319.565 248.591,319.859 248.027 C 320.154 247.462,320.397 246.730,320.400 246.400 C 320.403 246.070,320.655 245.322,320.960 244.737 C 321.265 244.152,321.837 242.307,322.230 240.637 C 322.624 238.967,323.064 237.600,323.209 237.600 C 323.353 237.600,323.709 236.340,324.000 234.800 C 324.291 233.260,324.655 232.000,324.809 232.000 C 324.964 232.000,325.313 230.605,325.586 228.900 C 325.859 227.195,326.226 225.620,326.402 225.400 C 326.577 225.180,326.927 223.560,327.178 221.800 C 327.429 220.040,327.791 218.240,327.982 217.800 C 328.395 216.848,329.201 210.828,329.201 208.700 C 329.200 207.875,329.350 207.200,329.533 207.200 C 329.717 207.200,329.881 206.975,329.897 206.700 C 330.819 191.735,330.698 173.000,329.671 171.410 C 329.525 171.185,329.107 169.110,328.741 166.800 C 327.948 161.797,326.836 156.756,326.401 156.200 C 326.230 155.980,325.860 154.765,325.581 153.500 C 325.301 152.235,324.941 151.200,324.781 151.200 C 324.620 151.200,324.379 150.612,324.244 149.893 C 324.109 149.174,323.639 147.914,323.199 147.094 C 322.760 146.274,322.400 145.395,322.400 145.140 C 322.400 144.336,317.032 133.251,316.424 132.800 C 316.276 132.690,315.918 132.015,315.629 131.300 C 315.340 130.585,314.957 130.000,314.778 130.000 C 314.600 130.000,314.331 129.595,314.181 129.100 C 314.030 128.605,313.510 127.660,313.024 127.000 C 312.538 126.340,312.025 125.485,311.883 125.100 C 311.741 124.715,311.439 124.400,311.213 124.400 C 310.986 124.400,310.800 124.175,310.800 123.900 C 310.799 123.625,310.382 122.916,309.873 122.324 C 309.364 121.732,308.599 120.759,308.174 120.163 C 307.748 119.566,307.085 118.746,306.700 118.339 C 306.315 117.933,306.000 117.430,306.000 117.223 C 306.000 117.015,305.685 116.610,305.300 116.323 C 304.915 116.035,303.943 114.990,303.141 114.000 C 300.262 110.450,293.213 103.918,288.002 99.973 C 286.134 98.558,284.424 97.257,284.202 97.083 C 283.981 96.908,282.810 96.145,281.600 95.386 C 280.390 94.627,279.130 93.828,278.800 93.609 C 278.470 93.390,277.390 92.672,276.400 92.013 C 275.410 91.354,274.390 90.811,274.133 90.807 C 273.877 90.803,273.607 90.652,273.533 90.471 C 273.386 90.107,262.008 84.407,261.389 84.387 C 261.175 84.381,260.100 83.932,259.000 83.391 C 257.900 82.850,256.809 82.406,256.575 82.404 C 256.341 82.402,255.405 82.040,254.494 81.600 C 253.584 81.160,252.571 80.800,252.243 80.800 C 251.915 80.800,251.544 80.632,251.417 80.427 C 251.290 80.222,250.199 79.833,248.993 79.564 C 247.787 79.294,246.800 78.950,246.800 78.800 C 246.800 78.650,245.765 78.298,244.500 78.017 C 243.235 77.736,241.750 77.285,241.200 77.014 C 240.650 76.742,239.030 76.283,237.600 75.993 C 236.170 75.703,234.910 75.342,234.800 75.191 C 234.690 75.040,232.800 74.613,230.600 74.242 C 228.400 73.871,225.790 73.407,224.800 73.211 C 223.810 73.014,220.885 72.724,218.300 72.567 C 215.715 72.409,213.600 72.127,213.600 71.940 C 213.600 71.753,208.560 71.600,202.400 71.600 C 195.200 71.600,191.200 71.743,191.200 72.000 M164.100 117.212 C 162.906 117.692,162.956 117.936,164.200 117.698 C 164.750 117.593,165.200 117.348,165.200 117.153 C 165.200 116.959,165.155 116.811,165.100 116.825 C 165.045 116.839,164.595 117.013,164.100 117.212 M159.900 118.676 C 159.515 118.776,159.200 119.038,159.200 119.256 C 159.200 119.691,160.762 119.332,161.380 118.755 C 161.780 118.382,161.154 118.348,159.900 118.676 M258.069 127.013 C 257.168 127.910,257.165 127.934,257.981 127.721 C 258.446 127.599,259.006 127.163,259.227 126.750 C 259.764 125.746,259.214 125.871,258.069 127.013 M177.246 128.467 C 177.221 128.834,177.096 129.464,176.970 129.867 C 176.752 130.562,176.763 130.563,177.197 129.887 C 177.448 129.496,177.573 128.866,177.473 128.487 C 177.311 127.868,177.288 127.866,177.246 128.467 M153.723 180.700 C 144.258 195.028,129.300 214.618,118.338 227.045 C 106.356 240.626,95.574 247.952,85.600 249.289 C 84.632 249.419,84.645 249.447,86.000 250.167 C 86.770 250.577,87.495 251.057,87.610 251.234 C 88.427 252.487,97.448 256.000,99.851 256.000 C 100.336 256.000,100.804 256.212,100.890 256.471 C 101.090 257.070,113.328 257.112,114.088 256.516 C 114.370 256.295,115.770 255.892,117.200 255.620 C 118.630 255.347,120.555 254.781,121.478 254.362 C 122.401 253.943,123.414 253.600,123.729 253.600 C 124.044 253.600,124.502 253.359,124.746 253.065 C 124.991 252.770,125.913 252.313,126.795 252.049 C 127.678 251.784,128.400 251.431,128.400 251.264 C 128.400 251.097,129.030 250.733,129.800 250.454 C 130.570 250.176,131.200 249.809,131.200 249.638 C 131.200 249.468,131.657 249.120,132.215 248.866 C 132.773 248.612,133.448 248.225,133.715 248.008 C 135.921 246.208,136.761 245.600,137.044 245.600 C 137.408 245.600,137.489 245.526,142.635 240.530 C 144.635 238.588,146.384 236.685,146.523 236.300 C 146.661 235.915,146.929 235.600,147.118 235.600 C 147.306 235.600,148.437 234.337,149.630 232.793 C 150.824 231.249,152.430 229.303,153.200 228.468 C 153.970 227.634,154.960 226.436,155.400 225.806 C 155.840 225.176,156.566 224.287,157.014 223.830 C 157.462 223.374,158.447 222.190,159.204 221.200 C 159.960 220.210,160.788 219.267,161.045 219.105 C 161.301 218.943,161.626 218.351,161.767 217.789 C 161.908 217.227,162.171 216.859,162.351 216.970 C 162.996 217.368,165.428 213.961,164.886 213.419 C 164.729 213.262,164.780 213.170,165.000 213.214 C 165.870 213.390,166.356 213.169,166.574 212.500 C 166.699 212.115,167.442 211.125,168.226 210.300 C 169.009 209.475,169.521 208.800,169.363 208.800 C 168.910 208.800,165.788 212.114,165.900 212.476 C 166.358 213.961,163.217 212.108,160.801 209.468 C 159.606 208.161,158.046 206.503,153.572 201.786 C 153.147 201.338,152.800 200.753,152.800 200.486 C 152.800 200.219,152.616 200.000,152.390 200.000 C 152.165 200.000,151.809 199.550,151.600 199.000 C 151.391 198.450,151.072 198.000,150.892 198.000 C 150.712 198.000,150.230 197.190,149.822 196.200 C 149.413 195.210,148.955 194.400,148.804 194.400 C 148.408 194.400,147.600 192.503,147.600 191.576 C 147.600 190.739,148.217 189.507,149.200 188.380 C 149.530 188.002,150.250 186.926,150.800 185.989 C 151.350 185.053,151.980 184.085,152.200 183.838 C 153.135 182.789,155.200 179.636,155.200 179.257 C 155.200 179.030,156.055 178.776,157.100 178.694 L 159.000 178.544 157.121 178.472 C 155.253 178.400,155.235 178.412,153.723 180.700 M164.000 178.781 C 164.000 178.998,163.096 179.081,161.900 178.974 C 160.394 178.839,160.026 178.893,160.600 179.165 C 162.070 179.861,164.800 179.596,164.800 178.757 C 164.800 178.561,164.620 178.400,164.400 178.400 C 164.180 178.400,164.000 178.572,164.000 178.781 M241.089 191.376 C 240.820 191.649,237.990 195.254,234.800 199.387 C 212.779 227.918,185.605 262.885,178.418 271.939 C 162.095 292.500,140.349 305.215,119.700 306.271 C 117.005 306.409,114.800 306.647,114.800 306.799 C 114.800 307.144,118.349 310.400,118.726 310.401 C 118.877 310.401,119.630 310.941,120.400 311.600 C 121.170 312.259,122.025 312.799,122.300 312.799 C 122.575 312.800,122.800 312.973,122.800 313.184 C 122.800 313.395,123.520 313.784,124.400 314.047 C 125.280 314.311,126.000 314.649,126.000 314.799 C 126.000 314.949,126.765 315.313,127.700 315.608 C 128.635 315.903,129.590 316.285,129.822 316.456 C 132.348 318.325,152.227 318.318,154.558 316.447 C 154.801 316.252,155.630 315.958,156.400 315.793 C 157.170 315.628,158.427 315.157,159.194 314.747 C 159.961 314.336,160.806 314.000,161.073 314.000 C 161.340 314.000,162.404 313.550,163.438 313.000 C 164.473 312.450,165.562 312.000,165.860 312.000 C 166.157 312.000,166.400 311.823,166.400 311.608 C 166.400 311.392,166.852 311.102,167.405 310.963 C 167.958 310.824,168.543 310.506,168.705 310.255 C 168.867 310.005,169.810 309.397,170.800 308.904 C 172.723 307.946,177.936 304.337,178.600 303.502 C 178.820 303.226,179.450 302.760,180.000 302.467 C 180.550 302.174,182.620 300.036,184.600 297.715 C 186.580 295.395,188.650 293.007,189.200 292.409 C 191.471 289.940,194.486 286.455,195.057 285.641 C 195.392 285.162,196.056 284.360,196.533 283.859 C 197.010 283.358,198.300 281.920,199.400 280.664 C 200.500 279.408,201.875 277.859,202.455 277.222 C 203.036 276.585,204.026 275.389,204.655 274.563 C 205.724 273.162,206.813 271.949,210.229 268.359 C 210.983 267.566,211.600 266.788,211.600 266.631 C 211.600 266.473,212.313 265.591,213.185 264.672 C 216.497 261.177,218.785 258.590,218.792 258.332 C 218.796 258.184,219.565 257.275,220.500 256.311 C 221.435 255.347,222.920 253.702,223.800 252.655 C 224.680 251.608,225.940 250.163,226.601 249.444 C 227.261 248.724,228.281 247.520,228.866 246.768 C 229.452 246.016,230.491 244.770,231.175 244.000 C 231.860 243.230,233.090 241.819,233.910 240.865 C 234.729 239.912,236.075 238.397,236.900 237.500 C 238.733 235.508,238.755 235.103,237.100 233.947 C 236.385 233.448,235.656 232.806,235.480 232.520 C 235.304 232.234,234.989 232.000,234.780 232.000 C 234.570 232.000,233.700 231.280,232.846 230.400 C 231.992 229.520,231.125 228.800,230.919 228.800 C 230.713 228.800,230.187 228.395,229.750 227.900 C 229.313 227.405,228.470 226.642,227.878 226.205 C 226.696 225.334,226.496 224.800,227.351 224.800 C 227.654 224.800,228.124 224.532,228.396 224.204 C 228.668 223.877,229.021 223.689,229.179 223.787 C 229.708 224.114,232.400 223.074,232.400 222.543 C 232.400 222.150,232.151 222.115,231.400 222.400 C 230.850 222.609,230.395 222.650,230.388 222.490 C 230.381 222.331,230.201 222.499,229.988 222.865 C 229.756 223.261,229.201 223.486,228.611 223.421 C 228.067 223.361,227.710 223.455,227.818 223.629 C 227.925 223.802,227.830 224.058,227.607 224.196 C 227.383 224.334,227.200 224.262,227.200 224.036 C 227.200 223.608,226.618 223.734,224.600 224.601 C 223.940 224.885,222.590 225.248,221.600 225.408 C 220.610 225.567,219.710 225.832,219.600 225.995 C 219.490 226.158,218.351 226.421,217.068 226.579 L 214.737 226.865 215.223 225.958 C 215.490 225.459,216.044 224.690,216.454 224.250 C 216.864 223.809,217.200 223.303,217.200 223.125 C 217.200 222.946,217.515 222.461,217.900 222.048 C 218.285 221.634,218.920 220.869,219.312 220.348 C 220.393 218.909,224.685 213.322,226.000 211.640 C 226.330 211.219,227.860 209.217,229.400 207.192 C 232.048 203.711,238.254 195.701,239.312 194.400 C 239.580 194.070,240.127 193.293,240.526 192.674 C 241.216 191.604,241.363 191.560,243.526 191.773 C 246.021 192.019,245.934 191.829,243.289 191.253 C 242.035 190.980,241.447 191.013,241.089 191.376 M254.154 191.777 C 254.032 192.094,254.003 192.679,254.089 193.077 C 254.187 193.528,254.324 193.312,254.454 192.500 C 254.671 191.138,254.530 190.796,254.154 191.777 M248.857 192.356 C 248.517 192.572,248.466 192.794,248.721 192.951 C 249.223 193.261,250.400 192.845,250.400 192.357 C 250.400 191.906,249.568 191.906,248.857 192.356 " stroke="none" fill="#0780c6" fill-rule="evenodd"></path><path id="path3" d="M156.000 172.400 C 156.000 172.620,155.272 173.565,154.381 174.500 C 152.429 176.551,152.126 176.904,150.371 179.174 C 149.091 180.831,148.682 181.323,146.861 183.400 C 146.475 183.840,145.457 185.100,144.600 186.200 C 143.742 187.300,142.626 188.630,142.120 189.155 C 141.614 189.680,141.200 190.291,141.200 190.512 C 141.200 190.734,140.836 191.295,140.391 191.758 C 138.236 194.001,136.800 195.701,136.800 196.012 C 136.800 196.200,136.469 196.590,136.063 196.877 C 135.658 197.165,135.092 197.850,134.805 198.400 C 134.518 198.950,134.039 199.544,133.742 199.720 C 133.444 199.896,133.200 200.237,133.200 200.478 C 133.200 200.719,132.832 201.295,132.382 201.758 C 130.840 203.346,129.200 205.378,129.200 205.702 C 129.200 205.879,128.570 206.603,127.800 207.310 C 127.030 208.016,126.400 208.739,126.400 208.916 C 126.400 209.440,112.182 223.927,108.741 226.909 C 105.183 229.992,102.070 232.400,101.641 232.400 C 101.399 232.400,101.200 232.584,101.200 232.810 C 101.200 233.035,100.750 233.391,100.200 233.600 C 99.650 233.809,99.200 234.131,99.200 234.315 C 99.200 234.500,98.570 234.898,97.800 235.200 C 97.030 235.502,96.400 235.893,96.400 236.069 C 96.400 236.245,95.731 236.669,94.914 237.010 C 94.097 237.352,93.332 237.772,93.214 237.945 C 92.918 238.378,87.851 240.800,87.240 240.800 C 86.966 240.800,86.484 241.059,86.167 241.376 C 85.850 241.693,84.780 242.074,83.790 242.222 C 82.800 242.371,81.892 242.652,81.771 242.846 C 81.651 243.041,81.023 243.200,80.376 243.200 C 78.151 243.200,79.258 245.100,83.238 248.112 C 87.457 251.306,99.851 245.415,110.668 235.073 C 121.091 225.109,140.974 199.999,153.723 180.700 C 155.432 178.113,155.309 178.147,160.798 178.782 C 162.800 179.014,163.882 178.991,164.053 178.715 C 164.365 178.209,162.861 176.400,162.128 176.400 C 161.838 176.400,161.600 176.238,161.600 176.039 C 161.600 175.841,161.015 175.304,160.300 174.846 C 159.585 174.388,159.149 174.010,159.331 174.007 C 159.513 174.003,159.127 173.550,158.473 173.000 C 157.264 171.982,156.000 171.676,156.000 172.400 M240.073 185.800 C 239.822 186.350,239.433 186.800,239.209 186.800 C 238.984 186.800,238.800 187.070,238.800 187.400 C 238.800 187.730,238.660 188.000,238.488 188.000 C 238.024 188.000,232.982 194.105,233.110 194.511 C 233.170 194.703,233.043 194.750,232.827 194.617 C 232.611 194.483,232.163 194.898,231.832 195.538 C 231.501 196.179,230.953 196.809,230.615 196.939 C 230.277 197.069,230.000 197.360,230.000 197.587 C 230.000 197.814,229.325 198.699,228.500 199.553 C 226.356 201.775,224.582 204.094,224.710 204.506 C 224.770 204.700,224.643 204.750,224.427 204.617 C 224.211 204.483,223.763 204.898,223.432 205.538 C 223.101 206.179,222.553 206.809,222.215 206.939 C 221.877 207.069,221.600 207.451,221.600 207.787 C 221.600 208.124,221.330 208.400,221.000 208.400 C 220.670 208.400,220.400 208.580,220.400 208.800 C 220.400 209.020,220.085 209.526,219.700 209.925 C 218.272 211.404,214.800 215.545,214.800 215.769 C 214.800 215.896,214.080 216.700,213.200 217.554 C 212.320 218.408,211.600 219.233,211.600 219.388 C 211.600 219.647,210.930 220.430,207.857 223.761 C 207.228 224.442,206.170 225.755,205.505 226.677 C 204.841 227.599,204.051 228.448,203.749 228.564 C 203.447 228.680,203.200 228.975,203.200 229.219 C 203.200 229.463,202.525 230.363,201.700 231.219 C 200.253 232.721,199.612 233.468,196.049 237.800 C 195.144 238.900,193.773 240.462,193.002 241.271 C 192.231 242.079,191.600 242.860,191.600 243.005 C 191.600 243.150,191.084 243.838,190.454 244.534 C 186.946 248.408,186.000 249.514,186.000 249.745 C 186.000 249.885,185.325 250.713,184.500 251.584 C 183.675 252.455,182.370 253.914,181.600 254.827 C 180.830 255.739,179.930 256.784,179.600 257.150 C 179.270 257.515,178.376 258.621,177.614 259.607 C 176.852 260.593,175.862 261.782,175.414 262.249 C 174.966 262.716,174.240 263.540,173.800 264.080 C 173.360 264.620,172.010 266.195,170.800 267.579 C 169.590 268.964,168.433 270.390,168.228 270.749 C 167.637 271.786,158.950 279.999,158.444 280.000 C 158.310 280.001,157.714 280.406,157.119 280.900 C 156.524 281.395,155.121 282.340,154.000 283.000 C 152.879 283.660,151.589 284.510,151.133 284.888 C 150.678 285.267,149.921 285.696,149.452 285.842 C 148.984 285.988,148.510 286.227,148.400 286.372 C 148.025 286.866,145.339 288.292,143.867 288.778 C 143.060 289.044,142.400 289.404,142.400 289.578 C 142.400 289.752,141.320 290.198,140.000 290.568 C 138.680 290.938,137.600 291.387,137.600 291.566 C 137.600 291.745,136.520 292.120,135.200 292.400 C 133.880 292.680,132.800 293.032,132.800 293.181 C 132.800 293.331,131.585 293.690,130.100 293.979 C 128.615 294.268,127.220 294.644,127.000 294.814 C 126.780 294.984,124.800 295.353,122.600 295.634 C 120.400 295.915,118.509 296.278,118.397 296.440 C 118.285 296.601,115.630 296.864,112.497 297.023 C 109.364 297.182,106.800 297.384,106.800 297.472 C 106.800 297.625,108.153 299.605,109.000 300.692 C 109.405 301.212,111.218 303.289,113.805 306.200 C 114.588 307.080,115.123 307.513,114.995 307.162 C 114.792 306.607,115.409 306.490,119.681 306.272 C 140.350 305.215,162.088 292.509,178.418 271.939 C 185.605 262.885,212.779 227.918,234.800 199.387 C 237.990 195.254,240.820 191.649,241.088 191.377 C 241.475 190.983,242.286 191.040,245.036 191.652 C 248.501 192.425,250.927 192.350,249.439 191.518 C 249.059 191.305,247.771 190.202,246.577 189.066 C 241.710 184.435,240.884 184.020,240.073 185.800 " stroke="none" fill="#040608" fill-rule="evenodd"></path><path id="path4" d="M195.400 96.493 C 193.640 96.705,192.110 97.015,192.000 97.181 C 191.890 97.347,190.585 97.710,189.100 97.987 C 187.615 98.264,186.400 98.626,186.400 98.791 C 186.400 98.956,185.320 99.320,184.000 99.600 C 182.680 99.880,181.600 100.243,181.600 100.407 C 181.600 100.571,180.790 100.909,179.800 101.158 C 178.810 101.408,178.000 101.760,178.000 101.941 C 178.000 102.122,177.010 102.607,175.800 103.018 C 174.590 103.429,173.600 103.918,173.600 104.104 C 173.600 104.290,173.060 104.630,172.400 104.860 C 171.740 105.090,171.200 105.419,171.200 105.591 C 171.200 105.762,170.660 106.127,170.000 106.400 C 169.340 106.673,168.800 107.025,168.800 107.181 C 168.800 107.337,168.307 107.720,167.704 108.032 C 167.101 108.345,166.117 109.095,165.518 109.700 C 164.918 110.305,164.266 110.800,164.069 110.800 C 163.871 110.800,162.789 111.745,161.662 112.900 C 160.536 114.055,158.452 116.196,157.032 117.657 C 155.611 119.119,154.338 120.205,154.203 120.070 C 154.068 119.935,154.087 120.162,154.245 120.574 C 154.521 121.292,154.561 121.288,155.211 120.486 C 155.650 119.944,156.026 119.786,156.277 120.037 C 156.722 120.482,158.098 120.082,157.797 119.595 C 157.688 119.419,157.959 119.369,158.399 119.484 C 158.840 119.599,159.200 119.514,159.200 119.294 C 159.200 119.075,160.053 118.680,161.095 118.418 C 162.137 118.155,163.172 117.798,163.395 117.623 C 163.913 117.216,166.773 116.273,167.737 116.191 C 168.142 116.156,168.594 115.934,168.741 115.696 C 168.888 115.458,169.546 115.135,170.204 114.977 C 170.862 114.820,171.850 114.458,172.400 114.174 C 172.950 113.889,173.940 113.476,174.600 113.256 C 175.260 113.036,176.769 112.475,177.954 112.009 L 180.108 111.162 179.823 113.677 C 179.667 115.060,179.397 116.374,179.224 116.596 C 179.051 116.818,178.906 117.270,178.903 117.600 C 178.886 119.226,177.402 129.525,177.202 129.401 C 177.075 129.323,176.960 129.561,176.945 129.929 C 176.872 131.791,175.806 139.026,175.579 139.200 C 175.436 139.310,175.088 141.425,174.806 143.900 C 174.524 146.375,174.167 148.400,174.013 148.400 C 173.859 148.400,173.725 148.625,173.715 148.900 C 173.625 151.302,172.617 158.000,172.345 158.000 C 172.155 158.000,172.035 158.135,172.078 158.300 C 172.227 158.877,171.145 167.007,170.814 167.800 C 170.476 168.607,169.239 176.578,169.039 179.232 C 168.834 181.959,168.245 182.186,166.351 180.266 C 165.173 179.072,164.919 178.976,163.925 179.351 C 163.126 179.652,162.306 179.634,161.002 179.285 C 158.730 178.677,155.200 178.647,155.200 179.235 C 155.200 179.631,153.160 182.761,152.200 183.838 C 151.980 184.085,151.350 185.053,150.800 185.989 C 150.250 186.926,149.530 188.002,149.200 188.380 C 148.217 189.507,147.600 190.739,147.600 191.576 C 147.600 192.503,148.408 194.400,148.804 194.400 C 148.955 194.400,149.413 195.210,149.822 196.200 C 150.230 197.190,150.712 198.000,150.892 198.000 C 151.072 198.000,151.391 198.450,151.600 199.000 C 151.809 199.550,152.165 200.000,152.390 200.000 C 152.616 200.000,152.800 200.219,152.800 200.486 C 152.800 200.753,153.147 201.338,153.572 201.786 C 153.997 202.234,155.530 203.860,156.979 205.400 C 163.876 212.728,165.015 213.598,166.129 212.392 C 166.499 211.992,166.472 211.954,166.000 212.218 C 165.478 212.510,165.473 212.463,165.964 211.859 C 166.274 211.476,166.779 211.260,167.085 211.377 C 167.398 211.497,167.532 211.413,167.391 211.185 C 167.253 210.962,167.739 210.170,168.470 209.426 C 169.202 208.681,170.520 207.218,171.400 206.175 C 172.280 205.132,173.366 203.871,173.813 203.375 C 174.260 202.878,175.070 201.883,175.613 201.164 C 176.689 199.738,177.645 198.619,179.797 196.266 C 180.569 195.422,181.205 194.612,181.212 194.466 C 181.218 194.320,182.473 192.850,184.000 191.200 C 185.527 189.550,186.782 188.041,186.788 187.846 C 186.795 187.651,187.205 187.102,187.700 186.626 C 188.195 186.150,190.040 183.983,191.800 181.810 C 193.560 179.637,195.360 177.460,195.800 176.972 C 196.240 176.484,197.230 175.313,198.000 174.369 C 198.770 173.425,199.985 171.989,200.700 171.178 C 201.415 170.367,202.000 169.598,202.000 169.470 C 202.000 169.341,202.405 168.808,202.900 168.285 C 203.917 167.210,206.195 164.501,207.874 162.371 C 208.493 161.585,209.270 160.647,209.600 160.285 C 211.092 158.650,211.113 158.580,210.381 157.676 C 209.991 157.194,209.544 156.800,209.389 156.800 C 209.233 156.800,208.516 156.305,207.796 155.700 C 207.076 155.095,206.019 154.240,205.447 153.800 C 204.875 153.360,204.070 152.730,203.657 152.400 C 203.244 152.070,202.313 151.350,201.587 150.800 C 198.374 148.365,198.472 148.550,200.228 148.225 C 201.093 148.065,202.340 147.698,203.000 147.410 C 205.510 146.315,209.451 144.885,210.700 144.616 C 211.415 144.462,212.000 144.191,212.000 144.013 C 212.000 143.835,212.675 143.566,213.500 143.415 C 214.325 143.264,215.360 142.911,215.800 142.630 C 216.240 142.350,217.545 141.879,218.700 141.584 C 219.855 141.290,220.800 140.931,220.800 140.788 C 220.800 140.645,221.790 140.306,223.000 140.035 C 224.210 139.764,225.200 139.376,225.200 139.171 C 225.200 138.967,225.485 138.800,225.833 138.800 C 226.517 138.800,234.743 136.059,235.400 135.612 C 235.620 135.463,236.610 135.110,237.600 134.829 C 238.590 134.547,239.580 134.188,239.800 134.031 C 240.020 133.873,241.010 133.508,242.000 133.220 C 242.990 132.932,244.340 132.470,245.000 132.193 C 245.660 131.916,246.650 131.557,247.200 131.396 C 247.750 131.234,248.380 130.965,248.600 130.797 C 248.820 130.630,249.630 130.364,250.400 130.207 C 251.170 130.050,252.210 129.662,252.711 129.344 C 253.213 129.027,253.798 128.875,254.011 129.007 C 254.225 129.139,254.400 129.065,254.400 128.842 C 254.400 128.619,255.024 128.319,255.787 128.176 C 256.550 128.033,257.639 127.485,258.208 126.958 C 259.280 125.964,259.828 125.707,259.400 126.400 C 258.952 127.126,259.808 126.816,260.507 126.000 C 260.884 125.560,261.009 125.200,260.786 125.200 C 260.563 125.200,260.209 124.750,260.000 124.200 C 259.791 123.650,259.435 123.200,259.210 123.200 C 258.984 123.200,258.800 122.934,258.800 122.609 C 258.800 122.284,258.350 121.724,257.800 121.363 C 257.250 121.003,256.800 120.522,256.800 120.295 C 256.800 120.068,255.765 118.837,254.500 117.559 C 253.235 116.281,251.230 114.238,250.045 113.018 C 248.860 111.798,247.729 110.800,247.531 110.800 C 247.334 110.800,246.682 110.305,246.082 109.700 C 245.483 109.095,244.499 108.345,243.896 108.032 C 243.293 107.720,242.800 107.337,242.800 107.181 C 242.800 107.025,242.260 106.673,241.600 106.400 C 240.940 106.127,240.400 105.762,240.400 105.591 C 240.400 105.419,239.860 105.090,239.200 104.860 C 238.540 104.630,238.000 104.290,238.000 104.104 C 238.000 103.918,237.010 103.429,235.800 103.018 C 234.590 102.607,233.600 102.122,233.600 101.941 C 233.600 101.760,232.790 101.408,231.800 101.158 C 230.810 100.909,230.000 100.571,230.000 100.407 C 230.000 100.243,228.920 99.880,227.600 99.600 C 226.280 99.320,225.200 98.952,225.200 98.782 C 225.200 98.612,223.940 98.247,222.400 97.972 C 220.860 97.697,219.600 97.346,219.600 97.192 C 219.600 96.182,202.157 95.678,195.400 96.493 M265.091 134.125 C 264.934 134.524,264.654 134.757,264.469 134.643 C 264.285 134.529,264.133 134.705,264.133 135.035 C 264.133 135.365,264.343 135.554,264.600 135.455 C 264.857 135.357,265.067 135.521,265.067 135.821 C 265.067 136.120,264.929 136.280,264.761 136.176 C 264.408 135.958,263.861 136.724,263.742 137.600 C 263.697 137.930,263.579 139.126,263.480 140.258 C 263.380 141.390,263.141 142.560,262.949 142.858 C 262.757 143.156,262.573 143.940,262.539 144.600 C 262.429 146.794,261.382 152.849,261.154 152.620 C 261.030 152.496,260.965 152.981,261.010 153.697 C 261.055 154.414,260.967 155.090,260.813 155.200 C 260.660 155.310,260.326 157.020,260.070 159.000 C 259.501 163.404,259.449 163.674,259.019 164.369 C 258.777 164.761,258.823 164.833,259.178 164.614 C 259.557 164.379,259.585 164.486,259.293 165.052 C 258.839 165.928,258.504 167.672,258.149 171.000 C 258.009 172.320,257.769 173.490,257.618 173.600 C 257.466 173.710,257.313 174.250,257.279 174.800 C 257.169 176.529,256.351 182.173,256.119 182.800 C 255.997 183.130,255.850 183.760,255.793 184.200 C 255.736 184.640,255.601 185.360,255.493 185.800 C 255.170 187.123,254.240 193.776,254.330 194.121 C 254.673 195.434,253.244 195.436,252.040 194.124 C 251.089 193.088,250.527 192.778,249.896 192.943 C 249.426 193.066,248.852 193.017,248.621 192.834 C 248.389 192.651,246.675 192.283,244.812 192.016 C 241.065 191.479,241.514 191.297,239.400 194.215 C 238.960 194.822,237.160 197.162,235.400 199.415 C 233.640 201.667,230.940 205.167,229.400 207.192 C 227.860 209.217,226.330 211.219,226.000 211.640 C 224.685 213.322,220.393 218.909,219.312 220.348 C 218.920 220.869,218.285 221.634,217.900 222.048 C 217.515 222.461,217.200 222.946,217.200 223.125 C 217.200 223.303,216.864 223.809,216.454 224.250 C 216.044 224.690,215.490 225.459,215.223 225.958 L 214.737 226.865 217.068 226.579 C 218.351 226.421,219.490 226.158,219.600 225.995 C 219.710 225.832,220.610 225.567,221.600 225.408 C 222.590 225.248,223.940 224.885,224.600 224.601 C 226.618 223.734,227.200 223.608,227.200 224.036 C 227.200 224.262,227.383 224.334,227.607 224.196 C 227.830 224.058,227.898 223.759,227.758 223.532 C 227.597 223.272,227.807 223.283,228.328 223.561 C 228.991 223.916,229.256 223.865,229.676 223.301 C 230.194 222.609,230.722 222.386,232.096 222.283 C 232.483 222.254,232.800 222.102,232.800 221.947 C 232.800 221.791,233.325 221.548,233.967 221.407 C 234.608 221.266,235.226 220.909,235.340 220.613 C 235.453 220.317,236.098 219.954,236.773 219.806 C 237.448 219.658,238.000 219.361,238.000 219.147 C 238.000 218.933,238.540 218.570,239.200 218.340 C 239.860 218.110,240.400 217.781,240.400 217.609 C 240.400 217.438,240.940 217.073,241.600 216.800 C 242.260 216.527,242.800 216.175,242.800 216.019 C 242.800 215.863,243.293 215.480,243.896 215.168 C 244.499 214.855,245.483 214.105,246.082 213.500 C 246.682 212.895,247.334 212.400,247.531 212.400 C 247.895 212.400,249.843 210.476,254.621 205.400 C 256.070 203.860,257.603 202.234,258.028 201.786 C 258.453 201.338,258.800 200.753,258.800 200.486 C 258.800 200.219,258.984 200.000,259.210 200.000 C 259.435 200.000,259.791 199.550,260.000 199.000 C 260.209 198.450,260.528 198.000,260.708 198.000 C 260.888 198.000,261.370 197.190,261.778 196.200 C 262.187 195.210,262.662 194.400,262.834 194.400 C 263.007 194.400,263.376 193.770,263.654 193.000 C 263.933 192.230,264.276 191.600,264.416 191.600 C 264.557 191.600,264.910 190.880,265.200 190.000 C 265.490 189.120,265.845 188.400,265.988 188.400 C 266.132 188.400,266.479 187.500,266.761 186.400 C 267.043 185.300,267.409 184.400,267.573 184.400 C 267.738 184.400,268.103 183.365,268.385 182.100 C 268.666 180.835,269.022 179.710,269.175 179.600 C 269.547 179.333,270.800 172.145,270.800 170.277 C 270.800 169.465,270.980 168.800,271.200 168.800 C 271.452 168.800,271.600 166.133,271.600 161.600 C 271.600 157.067,271.452 154.400,271.200 154.400 C 270.980 154.400,270.800 153.735,270.800 152.923 C 270.800 151.055,269.547 143.867,269.175 143.600 C 269.022 143.490,268.666 142.365,268.385 141.100 C 268.103 139.835,267.738 138.800,267.573 138.800 C 267.409 138.800,267.043 137.900,266.761 136.800 C 266.479 135.700,266.116 134.800,265.954 134.800 C 265.791 134.800,265.595 134.485,265.518 134.100 C 265.386 133.446,265.358 133.447,265.091 134.125 " stroke="none" fill="#149be9" fill-rule="evenodd"></path></g></svg>